<?xml version="1.0" standalone="no"?>
<!DOCTYPE svg PUBLIC "-//W3C//DTD SVG 20010904//EN"
 "http://www.w3.org/TR/2001/REC-SVG-20010904/DTD/svg10.dtd">
<svg version="1.0" xmlns="http://www.w3.org/2000/svg"
 width="1280.000000pt" height="1280.000000pt" viewBox="0 0 1280.000000 1280.000000"
 preserveAspectRatio="xMidYMid meet">

<g transform="translate(0.000000,1280.000000) scale(0.100000,-0.100000)"
fill="#000000" stroke="none">
<path d="M0 6400 l0 -6400 6400 0 6400 0 0 759 c0 591 -3 761 -13 764 -9 4 -9
6 1 6 9 1 12 55 12 236 0 232 0 235 -21 235 -15 0 -19 5 -15 15 4 12 0 14 -17
10 -18 -5 -26 -1 -35 19 -12 26 -32 35 -32 15 0 -6 -8 -8 -18 -5 -11 4 -21 -2
-29 -19 -6 -14 -7 -25 -3 -25 5 0 11 6 13 13 4 9 8 8 16 -3 10 -13 13 -13 22
3 12 20 29 23 29 3 0 -8 -11 -17 -25 -20 -14 -4 -23 -11 -20 -16 4 -6 16 -3
30 6 24 16 26 15 60 -19 35 -35 44 -60 25 -72 -6 -3 -10 -1 -10 4 0 6 -4 11
-10 11 -5 0 -7 -6 -4 -14 7 -19 -16 -32 -26 -15 -5 7 -6 26 -3 41 6 29 -5 36
-25 16 -8 -8 -15 -8 -26 1 -8 7 -20 10 -26 6 -5 -3 -10 2 -10 12 0 15 -2 15
-9 4 -8 -12 -12 -13 -26 -1 -13 10 -13 15 -3 21 8 6 2 9 -17 9 -17 0 -36 -5
-42 -11 -8 -8 -13 -8 -17 0 -4 6 -2 11 3 11 22 0 9 26 -24 47 -38 24 -50 21
-32 -9 10 -16 9 -22 -1 -25 -20 -7 -52 -45 -46 -54 7 -12 74 -8 74 5 0 6 7 3
14 -6 7 -10 17 -18 21 -18 4 0 14 -8 21 -17 7 -10 14 -13 14 -6 0 6 -4 15 -10
18 -5 3 -10 14 -10 23 0 13 3 12 16 -6 9 -14 26 -22 43 -22 25 0 28 -3 23 -27
-5 -25 -6 -25 -18 -8 -13 17 -14 16 -14 -12 0 -41 9 -63 23 -57 7 2 19 -1 27
-6 13 -8 13 -13 -2 -37 -23 -38 -34 -39 -49 -3 -8 16 -17 30 -21 30 -5 0 -8 7
-8 15 0 8 5 15 10 15 6 0 10 5 10 10 0 24 -17 6 -41 -45 -16 -34 -22 -56 -15
-58 15 -5 -18 -37 -38 -37 -20 0 -20 -2 4 45 11 22 20 45 20 52 0 7 7 13 16
13 10 0 14 6 11 14 -3 7 -1 18 5 24 14 14 -14 27 -37 18 -17 -6 -21 -36 -4
-36 5 0 7 -4 4 -10 -8 -12 -45 10 -45 27 0 7 -4 13 -10 13 -14 0 -13 -27 2
-32 16 -6 1 -28 -19 -28 -9 0 -13 6 -10 14 3 8 1 17 -6 19 -9 3 -9 8 1 20 8 9
11 25 7 37 -4 13 -2 20 7 21 7 1 -4 5 -25 10 -21 5 -45 16 -53 24 -9 8 -22 15
-30 15 -8 0 -14 8 -14 19 0 10 -9 21 -20 24 -11 3 -20 14 -20 25 0 16 -10 21
-62 27 -35 4 -57 9 -50 12 6 3 10 9 7 14 -4 5 -12 3 -19 -3 -14 -14 -8 -23 32
-45 24 -15 48 -17 55 -5 2 4 2 1 1 -6 -2 -7 8 -17 21 -22 14 -5 25 -13 25 -17
0 -13 57 -73 69 -73 6 0 11 -4 11 -10 0 -5 6 -10 14 -10 15 0 32 -37 22 -47
-3 -4 -6 1 -6 10 0 23 -13 28 -91 32 -76 4 -92 10 -69 26 11 8 8 8 -10 3 -14
-4 -28 -12 -32 -18 -5 -8 -11 -7 -20 2 -6 6 -18 12 -25 12 -10 0 -9 -6 3 -26
17 -26 25 -26 87 -8 27 8 20 -9 -12 -31 -16 -10 -28 -22 -25 -26 2 -4 -1 -11
-7 -14 -14 -9 -67 48 -75 81 -7 27 -29 32 -38 8 -10 -26 -7 -34 14 -34 13 0
20 -7 20 -18 0 -11 8 -26 18 -35 21 -19 102 -34 102 -19 0 6 -6 12 -12 15 -10
4 -10 7 0 18 10 11 12 11 12 -1 0 -8 6 -4 13 10 10 20 21 26 52 28 l40 2 -27
-15 c-30 -17 -37 -35 -13 -35 8 0 15 -4 15 -10 0 -5 16 -10 35 -10 33 0 35 -2
33 -30 -2 -25 -7 -30 -28 -30 -27 0 -70 36 -70 58 0 20 -21 14 -27 -8 -6 -23
-39 -36 -57 -21 -8 7 -23 7 -43 2 -28 -8 -30 -7 -26 13 4 20 4 20 -10 3 -8
-10 -25 -19 -37 -20 -19 -1 -19 -3 -5 -13 9 -7 25 -10 35 -7 17 4 20 0 20 -25
0 -28 -3 -31 -30 -30 -24 1 -30 5 -30 23 0 29 -25 51 -42 38 -38 -28 -86 4
-75 48 5 20 -8 33 -32 34 -8 0 -15 6 -17 13 -1 7 0 8 3 2 2 -5 9 -10 14 -10 6
0 8 4 4 9 -3 5 -1 12 5 16 16 10 12 25 -6 25 -11 0 -15 6 -11 19 3 13 0 18 -8
15 -7 -3 -11 -14 -8 -24 3 -12 -3 -22 -17 -30 -27 -14 -38 -5 -22 18 24 34 24
43 2 67 -14 15 -23 37 -23 55 0 34 -1 34 -27 20 -12 -6 -27 -7 -42 -1 -13 5
-40 12 -60 16 -44 7 -54 35 -12 35 14 0 23 -4 20 -9 -3 -5 2 -12 11 -15 9 -4
20 -2 23 5 6 8 9 8 14 0 10 -16 38 -13 61 6 19 15 19 15 -7 9 -39 -9 -78 2
-71 20 5 13 8 13 22 0 13 -12 20 -13 29 -4 28 28 1 79 -27 54 -14 -12 -18 -12
-29 0 -7 8 -8 14 -2 14 5 0 10 5 10 10 0 17 -29 11 -39 -9 -13 -23 -56 -35
-79 -22 -14 9 -14 11 -2 12 8 1 22 1 30 0 13 -2 13 -1 0 8 -14 10 -13 12 10
15 14 2 15 9 4 29 -10 17 -12 16 -29 -10 -28 -43 -41 -53 -68 -53 -28 0 -79
24 -77 35 2 11 -63 32 -80 27 -9 -3 -11 2 -7 17 6 23 -11 29 -31 9 -9 -9 -12
-9 -12 0 0 7 4 12 10 12 5 0 7 7 4 15 -7 17 -34 21 -34 5 0 -5 -10 -10 -21
-10 -18 0 -19 2 -9 15 10 12 10 18 0 30 -10 13 -9 15 11 15 23 0 22 2 -9 26
-23 18 -32 33 -29 45 3 12 0 19 -9 19 -8 0 -14 5 -14 10 0 6 -6 10 -13 10 -7
0 -20 8 -29 19 -8 10 -20 20 -25 22 -6 2 -13 20 -16 39 -4 19 -4 31 1 25 4 -5
16 -11 27 -13 25 -4 45 -29 38 -48 -3 -8 0 -14 6 -14 6 0 11 11 11 25 0 21 5
25 30 25 17 0 30 5 30 11 0 6 -15 9 -37 7 -35 -3 -38 -1 -38 22 0 21 4 25 28
22 27 -3 31 3 28 45 -2 24 34 54 55 46 8 -3 26 -2 42 3 l27 8 -35 6 c-22 3
-34 11 -32 19 2 8 -3 18 -10 22 -9 6 -8 10 7 15 29 11 56 42 44 50 -6 3 -8 15
-6 26 3 11 0 21 -9 25 -8 3 -14 14 -14 25 0 11 -5 28 -10 39 -9 16 -7 19 10
19 24 0 26 13 4 31 -15 12 -14 15 6 31 19 15 20 21 9 34 -10 13 -10 17 2 25
11 7 11 9 -3 9 -10 0 -18 7 -18 15 0 8 4 15 8 15 7 0 10 22 16 108 1 20 2 21
14 5 6 -9 12 -12 12 -7 0 6 -3 14 -6 17 -4 3 -8 50 -9 104 -1 59 -7 107 -14
118 -13 20 -11 9 6 -32 4 -11 3 -14 -5 -9 -7 4 -12 13 -12 20 0 8 -9 24 -21
37 -11 13 -17 18 -13 10 5 -9 3 -12 -4 -7 -9 5 -6 19 10 49 37 72 23 158 -31
193 l-26 17 22 -24 c24 -26 43 -70 43 -99 0 -14 -12 -21 -50 -29 -56 -12 -77
-7 -85 20 -4 11 -27 30 -51 42 -42 20 -47 20 -87 7 -37 -13 -42 -19 -42 -45 0
-24 7 -33 40 -52 22 -12 72 -31 113 -42 138 -38 176 -71 189 -171 10 -74 -5
-128 -48 -170 -64 -62 -135 -90 -230 -90 -84 0 -127 15 -196 67 -35 27 -78
105 -70 127 6 15 80 36 131 36 26 0 38 -6 47 -22 28 -51 97 -84 155 -73 27 5
39 14 51 40 9 18 13 40 10 49 -11 27 -68 54 -159 75 -49 12 -101 27 -116 35
-106 55 -133 213 -52 295 72 71 242 94 337 44 23 -12 44 -19 47 -14 3 4 -11
13 -30 20 -19 7 -32 17 -29 22 3 5 -1 6 -9 3 -9 -3 -24 -3 -33 1 -33 13 -164
17 -178 5 -7 -6 -24 -8 -37 -5 -16 4 -33 -1 -50 -14 -14 -12 -30 -21 -36 -21
-5 0 -19 -9 -32 -20 -13 -11 -28 -20 -34 -20 -6 0 -4 5 4 11 12 8 8 9 -15 8
-72 -5 -126 1 -119 13 4 7 3 8 -5 4 -13 -9 -43 12 -36 24 3 5 -5 6 -17 2 -15
-3 -19 -2 -14 7 6 9 0 10 -20 5 -18 -5 -25 -3 -21 4 5 6 -18 12 -61 16 -51 6
-85 2 -146 -13 -43 -12 -85 -26 -92 -32 -10 -8 -14 -9 -14 0 0 6 -4 11 -10 11
-5 0 -10 -6 -10 -14 0 -17 -45 -27 -59 -13 -8 8 -11 5 -11 -8 0 -18 0 -18 -15
1 -13 17 -14 11 -15 -67 l0 -87 -73 -4 c-58 -2 -82 -9 -109 -28 -69 -47 -73
-63 -71 -267 2 -143 0 -182 -11 -186 -18 -7 -172 -1 -185 7 -7 5 -11 90 -12
259 0 139 -4 279 -8 312 -5 33 -6 62 -4 65 3 3 50 7 105 8 l100 4 -2 -29 c-5
-75 -4 -75 53 -18 45 44 63 55 111 66 44 10 62 10 77 1 15 -10 17 -9 13 3 -7
19 -22 20 -134 12 -19 -1 -51 -11 -70 -21 -35 -19 -35 -19 -17 1 16 19 14 33
-5 33 -5 0 -6 -4 -3 -10 3 -6 -4 -10 -17 -10 -18 0 -20 2 -8 10 10 7 -4 9 -45
7 -33 -1 -63 -6 -66 -11 -10 -13 -81 -9 -90 6 -7 10 -9 10 -10 -2 -1 -8 -1
-19 0 -23 1 -5 -3 -6 -9 -2 -16 10 -112 -28 -118 -47 -2 -10 -9 -18 -14 -18
-5 0 -6 5 -3 11 4 6 1 9 -6 8 -23 -5 -58 23 -52 40 4 10 0 9 -10 -4 -15 -20
-16 -20 -24 3 -5 13 -12 23 -16 23 -24 -3 -38 0 -34 7 3 4 -7 8 -21 9 -15 1
-61 8 -102 16 -64 11 -77 11 -89 -1 -9 -9 -25 -12 -44 -8 -27 5 -28 4 -16 -11
12 -15 12 -16 -4 -10 -11 4 -30 10 -43 13 -14 4 -24 13 -24 24 0 11 -4 22 -10
25 -6 4 -10 -5 -10 -20 0 -17 8 -29 23 -36 19 -8 18 -8 -8 -3 -47 10 -109 11
-116 1 -4 -6 -18 -5 -35 1 -23 8 -25 11 -9 12 18 1 18 2 -3 11 -13 5 -28 7
-32 4 -5 -3 -8 10 -7 30 1 19 5 35 10 35 4 0 7 7 7 16 0 8 -5 12 -11 9 -6 -4
-13 2 -16 14 -3 12 -11 21 -18 21 -8 0 -16 9 -20 19 -3 11 -21 26 -40 35 -18
9 -36 22 -38 29 -4 9 -8 8 -16 -3 -10 -13 -13 -13 -22 3 -10 18 -11 18 -25 0
-11 -14 -14 -15 -15 -3 -1 8 -1 19 0 23 1 5 -3 6 -9 2 -5 -3 -10 3 -10 14 0
25 -20 38 -31 20 -14 -23 -10 -39 10 -39 22 0 37 -17 26 -28 -4 -4 -10 -1 -12
6 -3 6 -13 12 -24 12 -12 0 -19 7 -19 19 0 25 -15 35 -36 23 -17 -9 -86 17
-99 38 -8 13 11 13 33 -1 15 -9 23 -7 47 15 32 30 85 35 109 11 10 -10 17 -12
21 -4 11 16 -7 29 -50 36 -62 10 -82 43 -62 100 7 18 13 21 38 16 22 -4 29 -2
29 10 0 9 -8 20 -17 26 -28 15 -10 21 30 10 28 -7 35 -13 30 -27 -5 -14 -4
-15 8 -6 22 17 58 23 63 10 3 -7 5 -7 5 2 1 13 -44 36 -79 41 -23 3 -7 19 30
30 34 10 40 15 35 32 -4 11 -3 19 2 18 19 -3 23 2 13 21 -13 24 5 28 18 3 15
-26 46 -9 38 22 -5 19 -2 25 10 25 12 0 15 7 12 24 -4 21 -1 24 21 23 23 -2
26 2 24 26 -1 20 3 27 16 27 10 0 21 3 25 7 4 4 17 8 28 8 12 0 23 6 25 13 3
6 -2 12 -11 12 -22 0 -30 19 -11 27 10 3 21 0 27 -8 7 -10 8 -8 5 8 -3 13 -1
23 5 23 6 0 7 11 4 25 -7 26 3 32 21 14 13 -13 33 -4 33 17 0 15 15 19 23 7 2
-5 2 -1 -1 7 -16 54 -16 53 10 47 20 -5 27 -3 31 13 4 14 10 18 23 13 11 -4
15 -3 10 5 -3 6 3 13 14 17 11 3 20 15 20 25 0 13 -5 17 -15 14 -9 -4 -15 0
-15 10 0 9 8 16 19 16 33 0 51 11 51 31 0 11 8 22 18 26 31 11 73 65 67 87 -3
12 -2 15 1 9 15 -34 52 4 39 39 -4 10 1 17 15 21 12 3 19 10 16 15 -10 17 34
62 61 62 21 0 23 3 14 14 -10 12 -6 15 18 21 35 8 49 24 31 35 -11 7 -10 15 4
44 17 37 46 49 46 19 0 -9 3 -13 7 -9 4 4 -1 22 -12 41 -17 33 -14 65 4 36 7
-10 10 -10 16 -1 4 6 2 17 -4 23 -9 9 -6 16 10 28 14 10 21 27 22 53 1 36 3
37 29 32 34 -7 46 9 17 25 -18 9 -19 13 -8 21 11 7 11 11 2 15 -18 7 -16 33 2
33 8 0 15 5 15 11 0 6 -6 9 -13 6 -10 -4 -14 4 -14 24 0 20 5 29 16 29 12 0
16 10 16 43 0 23 4 53 9 66 6 16 5 21 -3 17 -7 -4 -11 1 -11 13 0 24 16 36 23
19 4 -9 6 -10 6 -1 1 6 -3 15 -9 18 -5 3 -10 13 -10 21 0 8 4 13 9 10 5 -3 12
22 16 57 20 157 27 197 36 203 6 3 7 15 3 26 -3 11 -2 18 2 15 5 -3 9 20 10
51 0 33 7 70 17 88 9 17 18 53 21 80 2 27 11 74 19 104 9 30 18 84 21 120 4
36 16 108 27 160 11 52 21 104 24 115 2 11 9 45 15 75 6 30 15 83 20 117 5 35
13 71 18 80 5 10 12 41 15 68 4 28 9 61 12 75 5 18 4 21 -3 10 -10 -15 -54
-208 -107 -465 -14 -71 -37 -182 -50 -245 -22 -103 -59 -300 -125 -664 -34
-191 -51 -219 -213 -364 -62 -55 -177 -164 -257 -243 -80 -79 -226 -220 -324
-314 -99 -93 -229 -218 -290 -276 -154 -147 -248 -229 -263 -229 -15 0 -50 22
-188 119 -201 141 -512 311 -711 389 -27 11 -123 50 -214 87 -179 72 -543 197
-628 214 -29 6 -73 11 -97 11 -86 0 -483 -111 -775 -216 -247 -90 -667 -302
-785 -399 -101 -81 -269 -195 -289 -195 -14 0 -59 31 -117 81 -52 44 -134 115
-184 157 -49 42 -117 101 -150 131 -80 74 -248 226 -310 282 -27 24 -63 58
-80 74 -16 17 -72 68 -124 115 -52 47 -113 103 -135 125 -23 22 -78 73 -123
114 -49 43 -90 90 -102 115 -18 38 -67 262 -91 421 -6 39 -18 99 -25 135 -16
71 -65 346 -96 531 -21 130 -39 175 -177 431 -59 110 -82 163 -77 177 3 11 29
55 57 98 108 165 137 256 189 586 16 106 36 228 44 272 8 44 28 184 45 310 25
190 118 781 136 862 4 21 92 100 394 355 63 53 192 161 285 239 94 79 172 146
175 149 3 3 38 33 79 66 202 163 228 178 377 223 55 16 142 43 194 59 52 17
151 47 220 67 69 21 188 57 265 80 123 38 283 85 575 170 147 42 402 112 477
130 71 17 130 14 228 -11 16 -4 17 -3 5 5 -37 23 -156 42 -225 36 -87 -8 -169
-27 -154 -36 7 -4 -8 -10 -32 -14 -24 -4 -49 -11 -56 -17 -6 -5 -35 -10 -65
-12 -29 -1 -64 -8 -77 -15 -17 -10 -21 -10 -16 -1 6 9 3 9 -11 2 -11 -6 -51
-17 -89 -25 -39 -9 -95 -24 -125 -35 -30 -11 -72 -23 -94 -26 -21 -4 -42 -8
-45 -11 -4 -2 -51 -16 -104 -30 -54 -14 -110 -31 -125 -37 -15 -6 -42 -13 -60
-15 -19 -2 -41 -10 -49 -18 -8 -9 -19 -13 -24 -9 -6 3 -15 1 -22 -4 -7 -5 -40
-13 -75 -17 -34 -4 -62 -11 -62 -15 0 -4 -6 -7 -12 -7 -7 1 -33 -5 -56 -13
-34 -11 -48 -11 -63 -2 -25 16 -29 15 -29 -7 0 -14 -10 -20 -42 -25 -44 -7
-138 -32 -173 -46 -11 -5 -43 -14 -72 -21 -29 -7 -49 -17 -46 -22 4 -6 0 -8
-8 -5 -20 8 -129 -21 -146 -38 -9 -9 -24 -12 -39 -8 -19 5 -24 2 -24 -13 0
-20 -35 -29 -45 -12 -4 5 -15 9 -27 9 -16 0 -19 -5 -15 -21 5 -18 2 -20 -20
-14 -17 4 -31 1 -43 -10 -16 -15 -18 -14 -22 9 -3 14 0 23 6 22 6 -2 8 -1 4 1
-4 2 -4 12 0 21 5 16 5 16 -11 0 -9 -9 -17 -21 -17 -27 0 -14 -57 -14 -65 -1
-3 6 -18 9 -33 9 -17 -1 -21 -3 -9 -6 9 -2 17 -9 17 -14 0 -6 13 -15 30 -20
30 -11 38 -23 21 -33 -5 -3 -14 1 -21 9 -7 8 -16 15 -21 15 -14 0 -11 -28 4
-33 6 -3 -5 -6 -25 -6 -29 -1 -38 3 -38 15 0 12 -4 14 -12 7 -16 -13 -69 -23
-63 -12 3 4 0 11 -6 15 -9 5 -10 -4 -6 -34 6 -37 5 -40 -13 -35 -12 3 -22 -1
-26 -11 -7 -19 -24 -22 -24 -4 0 6 -8 20 -17 30 -15 17 -15 20 -3 28 11 7 3
10 -25 10 -34 1 -37 3 -24 13 9 7 16 16 17 22 0 5 6 11 13 14 8 2 10 -3 7 -16
-4 -15 0 -19 16 -19 11 1 21 -5 21 -11 0 -20 20 -19 23 1 3 15 -51 77 -67 76
-11 -1 -38 -25 -44 -40 -4 -12 -6 -11 -6 3 -1 19 -9 21 -30 8 -13 -8 -13 -12
0 -27 11 -13 11 -18 2 -21 -7 -3 -13 -10 -13 -18 0 -7 -6 -18 -14 -24 -8 -7
-14 -26 -14 -42 1 -16 -2 -32 -5 -36 -4 -3 -7 3 -7 15 0 12 -5 22 -10 22 -6 0
-23 9 -39 21 -18 14 -38 19 -57 16 -27 -4 -28 -5 -6 -12 12 -4 22 -12 22 -17
0 -6 -7 -8 -15 -4 -8 3 -25 1 -37 -4 -18 -7 -19 -9 -5 -9 26 -1 20 -18 -9 -24
-14 -2 -31 2 -39 9 -16 16 -45 19 -45 4 0 -5 8 -10 17 -10 9 0 14 -2 11 -5
-12 -12 -57 7 -51 21 4 10 -3 14 -23 14 -26 0 -27 -1 -9 -14 18 -13 18 -14 -3
-20 -12 -4 -22 -14 -22 -22 0 -8 -6 -23 -12 -34 -11 -16 -9 -22 7 -34 16 -12
18 -17 7 -28 -10 -10 -14 -9 -18 9 -3 12 -15 24 -27 27 -21 5 -21 5 3 31 21
22 22 28 10 36 -13 7 -13 10 -1 18 7 5 11 14 7 20 -9 14 -56 -7 -56 -26 0 -10
-5 -11 -19 -3 -11 5 -35 10 -53 10 -28 1 -30 2 -14 11 13 8 25 8 41 1 23 -10
35 -7 35 10 0 4 -11 8 -25 8 -19 0 -25 5 -25 22 0 17 3 19 12 10 7 -7 25 -12
42 -12 l30 0 -30 31 c-28 30 -28 31 -10 45 11 7 16 17 12 21 -11 12 -40 -12
-46 -38 -4 -16 -8 -20 -14 -11 -13 21 -27 13 -20 -13 5 -20 3 -24 -10 -19 -28
11 -14 68 15 62 9 -2 15 7 17 25 3 26 6 28 33 22 25 -6 29 -4 29 14 0 22 -14
28 -25 11 -3 -5 -18 -10 -33 -10 -24 0 -25 1 -7 14 16 12 17 16 6 30 -7 9 -17
13 -22 10 -5 -3 -12 2 -15 11 -8 21 19 50 37 39 9 -5 8 -9 -7 -15 -15 -6 -16
-8 -3 -8 9 -1 29 5 43 13 21 10 23 15 11 19 -8 4 -15 12 -15 19 0 16 35 48 52
48 16 0 -24 29 -41 30 -9 0 -11 -7 -7 -25 6 -23 3 -25 -24 -25 -20 0 -30 5
-30 15 0 8 7 15 16 15 12 0 15 6 10 25 -5 19 -2 25 10 25 13 0 15 6 10 31 -3
17 -6 35 -6 40 0 14 -28 11 -33 -3 -3 -7 -6 -3 -6 10 -1 15 5 22 17 22 9 0 13
4 7 8 -5 4 -10 16 -10 27 0 13 -8 21 -22 23 -13 2 -23 10 -23 18 0 19 29 18
36 -1 4 -8 10 -15 15 -15 14 0 10 33 -6 54 -14 18 -15 18 -15 2 0 -10 -5 -14
-11 -11 -6 4 -8 14 -5 22 5 12 1 14 -17 9 -24 -6 -24 -5 -14 39 11 48 22 57
32 25 8 -24 55 -28 55 -5 0 8 -7 15 -15 15 -8 0 -15 5 -15 10 0 6 -11 10 -24
10 -13 0 -29 7 -36 15 -7 8 -19 15 -26 15 -8 0 -14 7 -14 16 0 11 5 14 18 9 9
-3 47 -9 83 -12 63 -5 66 -5 72 18 3 13 4 25 2 28 -3 2 -5 -1 -5 -7 0 -8 -7
-7 -22 1 -47 25 -49 27 -38 48 9 15 7 21 -5 25 -23 9 -18 27 6 21 30 -8 48 1
64 34 14 26 13 28 -5 34 -10 3 -37 7 -59 8 -35 1 -41 4 -41 24 0 12 4 25 10
28 6 3 10 2 10 -3 0 -17 71 -22 87 -7 8 8 25 15 38 15 20 0 34 21 35 53 0 17
-28 5 -33 -14 -5 -18 -8 -19 -26 -7 -12 7 -21 18 -21 25 0 7 -7 10 -15 7 -9
-4 -13 -16 -11 -35 4 -32 -10 -38 -29 -13 -10 14 -15 14 -34 4 -13 -6 -33 -9
-44 -7 -12 3 -31 1 -42 -3 -17 -7 -14 -9 13 -9 30 -1 32 -3 32 -37 0 -36 0
-36 -18 -14 -11 14 -23 19 -35 14 -17 -6 -17 -8 -1 -25 9 -11 29 -19 43 -19
20 0 22 -3 13 -12 -10 -10 -17 -10 -32 0 -50 31 -95 1 -48 -32 12 -9 19 -18
15 -22 -9 -9 -75 5 -83 18 -5 7 0 9 15 5 18 -4 20 -3 11 8 -8 9 -8 15 0 20 5
3 10 13 10 21 0 13 -3 13 -22 0 -29 -21 -44 -21 -24 0 20 20 20 43 1 50 -21 9
-19 24 4 24 11 0 22 -10 26 -22 6 -20 8 -20 12 -5 2 9 14 17 26 18 12 0 16 3
10 6 -20 8 -15 33 7 33 10 0 23 6 27 13 13 19 46 44 71 51 19 6 22 4 22 -18 0
-14 5 -26 11 -26 6 0 9 7 5 15 -3 9 0 15 10 15 12 0 14 8 8 38 -4 20 -11 45
-16 55 -11 21 16 25 29 4 6 -10 17 -11 41 -5 19 5 30 13 26 19 -3 6 -17 8 -30
5 -17 -5 -24 -2 -24 8 0 18 -30 36 -59 36 -24 0 -29 -25 -7 -33 9 -4 12 -14 9
-26 -3 -12 1 -28 8 -37 10 -13 10 -17 -2 -25 -8 -5 -22 -9 -31 -9 -9 0 -19 -4
-22 -9 -3 -5 -14 -11 -25 -14 -14 -3 -17 0 -13 15 4 18 2 19 -28 13 -19 -4
-40 -14 -48 -21 -14 -15 -32 -10 -32 8 0 5 7 8 15 4 8 -3 15 -1 15 4 0 6 -4
10 -9 10 -5 0 -16 2 -24 5 -20 8 -18 -56 2 -72 14 -11 14 -12 -1 -13 -10 0
-18 3 -18 8 0 4 -20 16 -45 27 -25 11 -45 23 -45 27 0 5 -6 8 -14 8 -7 0 -16
9 -19 20 -5 20 -27 28 -27 10 0 -5 -7 -10 -15 -10 -19 0 -19 19 0 25 8 3 23 8
33 12 9 3 20 7 24 7 24 3 16 16 -10 16 -22 0 -32 5 -32 15 0 18 2 19 45 1 24
-10 35 -22 35 -35 0 -12 -4 -21 -10 -21 -5 0 -10 -5 -10 -11 0 -6 9 -9 20 -6
10 3 20 1 22 -3 7 -18 32 -14 33 5 0 14 6 19 18 17 15 -3 17 1 12 20 -4 13
-11 27 -16 33 -19 20 -10 36 19 29 43 -10 47 -10 44 4 -1 6 4 12 10 12 21 0
41 -17 34 -28 -3 -6 -2 -13 4 -17 13 -8 40 19 40 39 0 19 -20 22 -21 4 0 -7
-4 -3 -9 9 -5 12 -22 25 -37 29 -15 4 -34 11 -40 16 -14 11 -43 4 -43 -11 0
-5 9 -13 20 -16 27 -9 15 -27 -13 -20 -12 3 -31 -1 -42 -9 -11 -9 -14 -16 -7
-16 21 0 13 -20 -9 -20 -17 0 -20 6 -18 33 1 17 -2 40 -6 50 -4 9 -5 27 -2 38
6 21 -18 57 -30 46 -9 -10 -44 13 -38 24 4 5 -1 9 -9 9 -16 0 -36 -29 -36 -51
0 -10 3 -10 12 -1 9 9 16 8 30 -5 24 -21 23 -37 -2 -30 -21 5 -18 -7 14 -48
15 -19 15 -18 10 13 -7 34 0 40 19 20 14 -14 16 -72 5 -84 -4 -4 -15 -1 -24 6
-9 8 -18 10 -22 4 -4 -5 -17 -15 -30 -22 -19 -10 -26 -10 -49 5 -21 14 -23 19
-11 21 10 2 26 -1 36 -7 26 -14 36 -2 16 21 -13 14 -14 21 -5 32 16 19 6 36
-20 36 -14 0 -19 -7 -19 -24 0 -26 -14 -41 -29 -32 -14 9 17 64 39 71 30 10
24 41 -11 55 -22 9 -27 16 -19 24 8 8 13 7 19 -3 10 -15 61 -8 61 9 0 6 7 10
15 10 20 0 19 10 -2 26 -17 12 -16 13 4 14 12 0 24 -4 27 -9 3 -5 31 -11 63
-13 31 -3 59 -10 61 -16 2 -7 17 -12 33 -12 33 0 35 -6 14 -36 -17 -26 -12
-33 20 -26 23 4 36 32 15 32 -5 0 -7 6 -4 13 2 7 -2 26 -10 41 -9 18 -16 23
-19 14 -4 -9 -6 -7 -6 5 -1 18 -31 25 -31 7 0 -5 -7 -10 -15 -10 -8 0 -15 4
-15 10 0 5 -7 7 -15 4 -19 -7 -19 3 -2 21 9 8 19 10 29 4 24 -13 44 -2 43 25
0 33 -15 45 -22 18 -8 -32 -16 -27 -36 18 -21 49 -21 50 -2 50 8 0 15 -6 15
-14 0 -15 68 -28 76 -14 8 12 -20 48 -38 48 -9 0 -20 5 -23 10 -4 6 7 10 24
10 17 0 31 5 31 10 0 6 -16 10 -35 10 -39 0 -48 21 -17 40 14 9 14 10 -6 5
-13 -4 -30 -1 -38 6 -8 6 -17 9 -21 5 -3 -3 0 -6 8 -7 8 -1 3 -4 -11 -8 -14
-4 -24 -13 -22 -19 2 -13 -8 -15 -32 -6 -9 3 -16 12 -16 20 0 8 -7 14 -16 14
-11 0 -14 -5 -9 -17 3 -10 12 -35 18 -55 13 -42 27 -50 27 -15 0 19 2 18 20
-10 11 -18 24 -33 29 -33 13 0 19 -33 10 -58 -5 -13 -17 -22 -30 -22 -14 0
-19 -5 -16 -14 8 -20 -16 -26 -29 -7 -10 13 -13 13 -28 -1 -23 -23 -56 -32
-69 -19 -8 8 -5 11 11 11 12 0 22 4 22 8 0 5 -10 8 -22 8 -14 -1 -23 5 -23 14
0 21 36 25 47 6 12 -21 24 -20 50 4 16 15 24 17 29 8 7 -10 11 -10 21 0 9 9 9
12 -4 12 -9 0 -19 10 -21 23 l-4 22 -2 -22 c-1 -24 -15 -30 -26 -13 -3 6 -1
10 5 10 6 0 8 5 3 13 -4 6 -8 17 -8 22 -1 6 -7 22 -15 38 -10 21 -18 26 -33
21 -15 -5 -19 -3 -14 10 3 8 2 18 -3 21 -6 4 -10 -1 -10 -9 0 -9 -7 -16 -15
-16 -8 0 -15 9 -15 19 0 10 7 21 15 25 18 7 19 23 3 59 -9 19 -19 26 -30 23
-10 -2 -18 1 -18 8 0 16 32 46 48 46 7 0 12 4 12 10 0 5 12 15 26 23 l25 13
-26 12 c-23 11 -27 10 -32 -6 -2 -10 -13 -23 -24 -30 -16 -10 -19 -9 -19 3 0
8 5 15 11 15 5 0 7 5 3 11 -3 6 0 15 7 20 16 10 11 16 -16 19 -39 4 -80 0 -69
-8 15 -10 14 -42 -2 -42 -26 0 -44 13 -44 31 0 10 7 19 15 19 22 0 18 27 -4
33 -13 3 -18 0 -15 -8 3 -7 1 -16 -5 -20 -15 -9 -51 4 -51 18 0 7 -17 22 -38
35 -28 17 -38 30 -39 53 l-2 30 19 -23 c18 -23 19 -23 33 -4 14 19 15 19 26
-2 10 -18 9 -22 -4 -22 -19 0 -19 -14 0 -30 17 -14 37 -4 33 18 -2 11 5 17 20
18 23 1 45 14 23 14 -7 0 -9 9 -5 25 7 29 -15 35 -39 10 -9 -8 -17 -10 -19 -5
-2 5 -20 11 -40 12 -31 3 -37 6 -32 21 3 9 1 17 -5 17 -6 0 -11 -6 -11 -14 0
-18 -50 -51 -60 -39 -4 4 -11 19 -15 33 -7 23 -7 23 11 6 17 -17 18 -17 31 0
7 10 25 17 43 17 16 0 30 4 30 8 0 12 -35 29 -59 29 -14 0 -21 6 -21 20 0 22
4 23 35 10 14 -5 26 -2 43 14 23 21 102 32 102 14 0 -4 -6 -8 -12 -8 -9 0 -8
-3 2 -10 11 -7 12 -12 3 -21 -12 -12 -37 -3 -28 11 3 4 -2 11 -11 14 -23 9
-31 7 -14 -4 11 -7 7 -9 -15 -7 -21 1 -30 -3 -30 -13 0 -9 10 -15 25 -16 14 0
38 -4 54 -8 31 -8 55 13 56 47 0 11 8 17 21 17 18 0 20 4 15 25 -5 19 -2 25 9
25 19 0 56 -20 72 -40 11 -13 12 -13 13 1 0 9 -11 21 -25 27 -14 6 -25 19 -25
28 0 13 -3 14 -14 5 -12 -10 -18 -9 -33 6 -10 10 -18 27 -18 38 0 20 -8 20
-1327 23 l-1328 2 0 -6400z m2569 6349 c1 -4 -10 -10 -24 -13 -32 -8 -33 -30
-1 -24 19 4 22 1 18 -14 -2 -11 -10 -17 -18 -14 -7 3 -16 1 -19 -4 -10 -16
-45 -11 -45 5 0 8 5 15 11 15 5 0 8 3 6 8 -10 16 13 52 33 52 12 0 20 7 21 18
0 14 2 14 9 -3 5 -11 9 -23 9 -26z m-84 -9 c-3 -5 -10 -10 -16 -10 -5 0 -9 5
-9 10 0 6 7 10 16 10 8 0 12 -4 9 -10z m155 -35 c0 -9 -6 -12 -15 -9 -8 4 -12
10 -9 15 8 14 24 10 24 -6z m-239 -28 c-10 -9 -11 -8 -5 6 3 10 9 15 12 12 3
-3 0 -11 -7 -18z m-71 -65 c0 -13 -12 -22 -22 -16 -10 6 -1 24 13 24 5 0 9 -4
9 -8z m-190 -18 c0 -8 -4 -12 -10 -9 -5 3 -10 10 -10 16 0 5 5 9 10 9 6 0 10
-7 10 -16z m50 -6 c10 -3 8 -6 -8 -10 -18 -5 -22 -2 -22 15 0 13 3 17 8 11 4
-6 14 -13 22 -16z m175 -8 c4 -6 -6 -10 -22 -9 -25 0 -26 1 -8 9 11 5 21 9 22
9 1 1 5 -3 8 -9z m-155 -50 c0 -5 -4 -10 -9 -10 -6 0 -13 5 -16 10 -3 6 1 10
9 10 9 0 16 -4 16 -10z m20 -80 c0 -5 -4 -10 -10 -10 -5 0 -10 5 -10 10 0 6 5
10 10 10 6 0 10 -4 10 -10z m290 -61 c7 -16 10 -32 7 -35 -10 -10 -27 7 -27
27 0 10 -4 19 -10 19 -5 0 -10 10 -10 21 0 17 3 19 14 10 8 -6 19 -25 26 -42z
m-120 31 c0 -6 -20 -10 -45 -10 -59 0 -58 14 0 17 25 1 45 -2 45 -7z m-143
-16 c-3 -3 -12 -4 -19 -1 -8 3 -5 6 6 6 11 1 17 -2 13 -5z m183 -59 c0 -8 -4
-15 -10 -15 -5 0 -10 7 -10 15 0 8 5 15 10 15 6 0 10 -7 10 -15z m274 -12 c-7
-30 -12 -39 -18 -32 -2 2 -6 16 -10 32 -5 23 -3 27 14 27 17 0 19 -4 14 -27z
m-209 -13 c9 -16 12 -30 7 -30 -15 0 -44 38 -37 49 9 16 13 14 30 -19z m102 2
c16 -10 1 -68 -17 -64 -6 1 -21 0 -32 -4 -16 -5 -18 -8 -7 -15 12 -7 11 -9 -1
-9 -8 0 -21 4 -29 9 -11 7 -11 10 2 17 9 5 15 16 14 24 -1 8 2 15 6 15 5 0 13
8 18 18 11 18 26 21 46 9z m40 -34 c-3 -8 -6 -5 -6 6 -1 11 2 17 5 13 3 -3 4
-12 1 -19z m-157 -24 c0 -8 -4 -12 -10 -9 -5 3 -10 10 -10 16 0 5 5 9 10 9 6
0 10 -7 10 -16z m191 -22 c-6 -2 -11 -12 -11 -23 0 -10 -4 -19 -10 -19 -9 0
-11 46 -2 63 2 4 11 2 19 -5 10 -8 11 -14 4 -16z m-201 -12 c0 -5 -7 -7 -15
-4 -8 4 -15 8 -15 10 0 2 7 4 15 4 8 0 15 -4 15 -10z m125 0 c5 -8 11 -7 21 1
11 9 14 7 14 -10 0 -12 -6 -21 -16 -21 -21 0 -54 18 -54 30 0 13 27 13 35 0z
m-295 -20 c-8 -5 -19 -10 -25 -10 -5 0 -3 5 5 10 8 5 20 10 25 10 6 0 3 -5 -5
-10z m423 -27 c-7 -3 -13 -11 -13 -19 0 -8 -4 -14 -9 -14 -6 0 -6 12 1 31 8
23 13 28 22 19 8 -9 8 -14 -1 -17z m-167 -8 c14 -13 13 -15 -5 -15 -21 0 -35
13 -24 24 9 9 13 8 29 -9z m58 -4 c3 -5 -1 -12 -10 -15 -20 -8 -29 -1 -19 13
8 13 22 14 29 2z m-104 -21 c0 -5 -4 -10 -9 -10 -6 0 -13 5 -16 10 -3 6 1 10
9 10 9 0 16 -4 16 -10z m133 3 c-18 -7 -16 -23 2 -23 9 0 28 -8 42 -17 l27
-18 -29 -6 -30 -7 28 -1 c17 -1 27 -7 27 -16 0 -13 -4 -14 -20 -5 -14 8 -26 8
-40 0 -14 -7 -20 -7 -20 0 0 5 -9 10 -21 10 -11 0 -17 5 -14 10 4 6 12 10 18
9 39 -5 52 15 17 26 -16 5 -18 10 -10 26 6 10 16 19 23 18 9 0 9 -2 0 -6z
m-182 -81 c-27 -12 -32 -12 -45 1 -13 12 -13 16 -2 20 7 3 18 1 24 -5 8 -8 13
-7 18 6 5 13 9 14 21 5 11 -10 9 -15 -16 -27z m469 7 c0 -11 -4 -18 -10 -14
-5 3 -7 12 -3 20 7 21 13 19 13 -6z m-525 -19 c3 -5 1 -10 -4 -10 -6 0 -11 5
-11 10 0 6 2 10 4 10 3 0 8 -4 11 -10z m145 -10 c0 -5 -4 -10 -10 -10 -5 0
-10 5 -10 10 0 6 5 10 10 10 6 0 10 -4 10 -10z m-148 -30 c17 -16 26 -30 21
-30 -6 0 -24 14 -41 30 -18 17 -27 30 -22 30 6 0 24 -13 42 -30z m418 0 c0 -5
-4 -10 -10 -10 -5 0 -10 -8 -11 -17 0 -12 -2 -13 -6 -5 -4 10 -8 10 -18 2 -19
-16 -59 -8 -63 12 -2 12 2 15 15 12 10 -3 29 -1 43 5 33 13 50 13 50 1z m-213
-6 c-3 -3 -12 -4 -19 -1 -8 3 -5 6 6 6 11 1 17 -2 13 -5z m79 -5 c10 -17 -13
-36 -27 -22 -12 12 -4 33 11 33 5 0 12 -5 16 -11z m-194 -31 c-7 -7 -12 -8
-12 -2 0 14 12 26 19 19 2 -3 -1 -11 -7 -17z m118 -23 c0 -8 -4 -15 -10 -15
-5 0 -10 7 -10 15 0 8 5 15 10 15 6 0 10 -7 10 -15z m111 -35 c5 0 9 -7 9 -16
0 -11 -5 -14 -17 -9 -10 4 -26 10 -35 12 -10 3 -18 9 -18 14 0 5 -7 9 -15 9
-8 0 -15 4 -15 9 0 6 16 7 35 4 29 -5 35 -3 36 13 1 11 4 7 6 -8 2 -16 9 -28
14 -28z m-271 30 c-14 -4 -34 -8 -45 -8 -16 0 -15 2 5 8 14 4 34 8 45 8 16 0
15 -2 -5 -8z m-95 -30 c17 -7 14 -9 -13 -9 -20 -1 -31 3 -27 9 7 12 13 12 40
0z m445 -44 c0 -3 -4 -8 -10 -11 -5 -3 -10 -1 -10 4 0 6 5 11 10 11 6 0 10 -2
10 -4z m-477 -33 c-7 -2 -19 -2 -25 0 -7 3 -2 5 12 5 14 0 19 -2 13 -5z m554
-65 c-3 -8 -6 -5 -6 6 -1 11 2 17 5 13 3 -3 4 -12 1 -19z m-274 -25 c-7 -2
-19 -2 -25 0 -7 3 -2 5 12 5 14 0 19 -2 13 -5z m-113 -32 c0 -6 -4 -13 -10
-16 -5 -3 -10 1 -10 9 0 9 5 16 10 16 6 0 10 -4 10 -9z m117 -17 c-3 -3 -12
-4 -19 -1 -8 3 -5 6 6 6 11 1 17 -2 13 -5z m-294 -92 c-18 -5 -27 3 -18 17 4
7 10 7 20 -2 11 -10 11 -13 -2 -15z m637 8 c0 -5 -4 -10 -10 -10 -5 0 -10 5
-10 10 0 6 5 10 10 10 6 0 10 -4 10 -10z m-180 -30 c9 -16 8 -20 -5 -20 -8 0
-15 6 -15 14 0 8 -6 17 -12 19 -8 3 -6 6 4 6 10 1 22 -8 28 -19z m-273 -46
c-3 -3 -12 -4 -19 -1 -8 3 -5 6 6 6 11 1 17 -2 13 -5z m311 -6 c-3 -7 -13 -15
-24 -17 -16 -3 -17 -1 -5 13 16 19 34 21 29 4z m-105 -15 c-7 -2 -19 -2 -25 0
-7 3 -2 5 12 5 14 0 19 -2 13 -5z m187 1 c0 -9 -28 -34 -37 -34 -5 0 -9 9 -9
20 0 14 7 20 23 20 13 0 23 -3 23 -6z m190 -7 c0 -17 -20 -37 -37 -37 -19 0
-16 20 5 36 22 17 32 17 32 1z m-290 -17 c0 -5 -2 -10 -4 -10 -3 0 -8 5 -11
10 -3 6 -1 10 4 10 6 0 11 -4 11 -10z m144 -15 c11 -8 17 -17 14 -20 -8 -8
-58 13 -58 25 0 14 22 12 44 -5z m-177 -41 c-3 -3 -12 -4 -19 -1 -8 3 -5 6 6
6 11 1 17 -2 13 -5z m-27 -14 c12 -7 12 -12 3 -21 -9 -9 -16 -9 -27 1 -26 21
-5 39 24 20z m77 4 c-3 -3 -12 -4 -19 -1 -8 3 -5 6 6 6 11 1 17 -2 13 -5z m63
-29 c0 -8 -4 -15 -10 -15 -5 0 -10 -7 -10 -15 0 -8 7 -15 15 -15 9 0 18 -7 21
-15 5 -12 10 -13 20 -4 8 6 11 15 8 20 -3 5 0 9 5 9 6 0 11 -8 11 -18 0 -23
-22 -72 -33 -72 -5 0 -5 -4 -2 -10 3 -5 -3 -10 -14 -10 l-21 0 20 20 c25 25
25 37 1 50 -14 7 -21 6 -24 -3 -3 -9 -9 -9 -26 1 -12 7 -26 10 -31 7 -6 -4
-10 -2 -10 4 0 5 5 13 11 17 8 4 8 9 0 17 -17 17 -13 27 8 27 11 0 23 5 26 10
10 15 35 12 35 -5z m90 -4 c0 -4 -11 -8 -25 -9 -23 -2 -32 7 -19 20 7 7 44 -2
44 -11z m-209 -66 c13 -19 27 -35 32 -35 4 0 7 -7 7 -15 0 -8 -9 -15 -20 -15
-11 0 -17 5 -15 13 6 15 -43 70 -56 62 -5 -4 -14 -3 -21 1 -8 5 -6 10 8 15 33
13 41 10 65 -26z m518 19 c10 -9 -56 -3 -69 7 -11 7 -4 8 25 3 22 -4 42 -8 44
-10z m-293 -88 c8 -8 11 -22 8 -30 -5 -12 0 -16 20 -16 14 0 26 -4 26 -10 0
-5 9 -10 21 -10 12 0 19 -5 16 -12 -2 -7 -9 -12 -14 -11 -6 1 -31 -4 -56 -12
l-46 -14 12 26 c9 21 8 27 -7 39 -17 12 -17 14 -3 20 9 3 14 10 11 15 -3 5
-10 7 -15 4 -5 -3 -6 1 -3 9 8 20 12 20 30 2z m-146 -26 c0 -5 -4 -10 -10 -10
-5 0 -10 5 -10 10 0 6 5 10 10 10 6 0 10 -4 10 -10z m-150 -25 c0 -8 -7 -15
-15 -15 -16 0 -20 12 -8 23 11 12 23 8 23 -8z m30 -15 c0 -5 -2 -10 -4 -10 -3
0 -8 5 -11 10 -3 6 -1 10 4 10 6 0 11 -4 11 -10z m110 6 c0 -2 -7 -6 -15 -10
-8 -3 -15 -1 -15 4 0 6 7 10 15 10 8 0 15 -2 15 -4z m88 -18 c-2 -6 -10 -14
-16 -16 -7 -2 -10 2 -6 12 7 18 28 22 22 4z m-251 -4 c-3 -3 -12 -4 -19 -1 -8
3 -5 6 6 6 11 1 17 -2 13 -5z m183 -41 c-1 -23 -27 -39 -50 -32 -25 7 -25 7 4
8 24 1 27 3 16 16 -10 13 -9 15 9 15 11 0 21 -3 21 -7z m235 -3 c3 -5 12 -7
20 -3 8 3 15 1 15 -5 0 -10 -70 -25 -79 -17 -2 3 4 5 13 5 12 0 16 5 12 15 -6
16 9 21 19 5z m-105 -40 c0 -5 -9 -10 -21 -10 -11 0 -17 5 -14 10 3 6 13 10
21 10 8 0 14 -4 14 -10z m-115 -50 c3 -5 17 -10 31 -10 13 0 24 -4 24 -10 0
-5 -6 -10 -14 -10 -24 0 -66 19 -66 30 0 13 17 13 25 0z m175 -10 c0 -11 -2
-20 -5 -20 -2 0 -9 9 -15 20 -9 16 -8 20 5 20 8 0 15 -9 15 -20z m-42 -38 c4
-28 33 -29 50 -2 7 11 20 20 30 20 15 -1 15 -2 -2 -15 -29 -22 4 -31 43 -11
35 18 41 19 41 7 0 -5 -13 -14 -30 -21 -16 -7 -27 -16 -25 -20 10 -16 -13 -20
-25 -5 -9 10 -24 13 -56 8 -37 -5 -44 -3 -44 11 0 18 -16 22 -22 6 -2 -7 -11
-5 -23 4 -20 16 -20 16 3 22 12 3 22 11 22 16 0 20 35 2 38 -20z m-353 -12 c3
-5 -1 -10 -10 -10 -9 0 -13 5 -10 10 3 6 8 10 10 10 2 0 7 -4 10 -10z m301
-49 c9 -12 17 -13 35 -5 30 13 59 7 59 -12 0 -23 -26 -44 -53 -44 -14 0 -28
-6 -31 -12 -3 -7 -3 -3 -1 8 7 25 -22 42 -31 19 -4 -8 -14 -15 -23 -15 -13 0
-18 10 -20 45 -2 45 -2 46 26 39 15 -4 33 -14 39 -23z m218 -1 c9 0 16 -6 16
-14 0 -19 -30 -29 -46 -15 -11 9 -14 6 -14 -18 0 -27 3 -30 24 -26 17 4 27 -1
36 -16 6 -12 15 -19 20 -16 16 10 19 -10 4 -30 -12 -16 -14 -17 -14 -2 0 11
-8 17 -25 17 -24 0 -35 -15 -15 -22 6 -2 6 -14 1 -33 l-9 -30 -12 34 c-11 27
-14 31 -22 17 -11 -20 -28 -21 -28 -1 0 9 -10 15 -22 16 -13 1 -3 6 22 11 l45
10 -43 21 c-32 16 -42 26 -40 41 4 24 28 34 28 12 0 -10 9 -16 21 -16 14 0 19
5 16 15 -4 8 -2 17 3 20 6 4 10 18 10 33 1 25 2 25 14 10 7 -10 21 -18 30 -18z
m-284 -80 c0 -5 -7 -10 -15 -10 -8 0 -15 5 -15 10 0 6 7 10 15 10 8 0 15 -4
15 -10z m60 -37 c0 -7 -4 -13 -8 -13 -15 0 -32 24 -32 44 0 18 1 19 20 1 11
-10 20 -24 20 -32z m-20 -43 c0 -5 -2 -10 -4 -10 -3 0 -8 5 -11 10 -3 6 -1 10
4 10 6 0 11 -4 11 -10z m120 -60 c0 -5 -2 -10 -4 -10 -3 0 -8 5 -11 10 -3 6
-1 10 4 10 6 0 11 -4 11 -10z m45 -2 c14 -6 25 -15 25 -20 0 -14 -20 -9 -42
12 -25 23 -20 25 17 8z m-155 -28 c0 -5 -4 -10 -9 -10 -6 0 -13 5 -16 10 -3 6
1 10 9 10 9 0 16 -4 16 -10z m230 -2 c0 -7 -7 -22 -16 -33 -12 -17 -16 -18
-24 -5 -6 10 -4 20 7 32 19 21 33 23 33 6z m14 -124 c23 -9 9 -24 -20 -24 -16
0 -23 4 -18 11 5 9 -1 10 -20 5 -18 -4 -25 -3 -21 4 7 11 54 14 79 4z m-94
-69 c0 -8 -4 -15 -10 -15 -5 0 -10 7 -10 15 0 8 5 15 10 15 6 0 10 -7 10 -15z
m695 -55 c3 -5 1 -10 -4 -10 -6 0 -11 5 -11 10 0 6 2 10 4 10 3 0 8 -4 11 -10z
m-608 -35 c-5 -10 -18 -15 -44 -14 -34 2 -35 2 -8 6 17 3 34 11 38 20 11 18
22 9 14 -12z m578 5 c3 -5 -1 -10 -10 -10 -9 0 -13 5 -10 10 3 6 8 10 10 10 2
0 7 -4 10 -10z m-85 -51 c0 -16 -25 -10 -43 11 -24 28 -21 31 13 14 17 -9 30
-20 30 -25z m104 7 c-7 -17 -44 -23 -44 -6 0 6 9 10 20 10 11 0 20 5 20 12 0
6 2 9 5 6 3 -3 3 -13 -1 -22z m-659 -16 c3 -5 1 -10 -4 -10 -6 0 -11 5 -11 10
0 6 2 10 4 10 3 0 8 -4 11 -10z m500 -10 c-3 -5 -28 -10 -56 -10 -27 0 -49 5
-49 10 0 6 25 10 56 10 34 0 53 -4 49 -10z m-317 -10 c33 0 -1 -14 -38 -16
-30 -2 -40 2 -40 13 0 12 7 14 31 9 17 -3 38 -6 47 -6z m117 -9 c-19 -8 -18
-9 8 -21 15 -7 27 -17 27 -22 0 -11 -7 -10 -41 8 -25 12 -28 18 -18 30 6 8 19
14 28 13 12 0 11 -2 -4 -8z m282 3 c-3 -3 -12 -4 -19 -1 -8 3 -5 6 6 6 11 1
17 -2 13 -5z m-167 -14 c0 -5 -2 -10 -4 -10 -3 0 -8 5 -11 10 -3 6 -1 10 4 10
6 0 11 -4 11 -10z m90 -22 c0 -12 -28 -9 -36 3 -3 6 0 15 7 20 13 7 28 -5 29
-23z m-450 2 c0 -13 -11 -13 -30 0 -12 8 -11 10 8 10 12 0 22 -4 22 -10z m60
-30 c0 -5 -4 -10 -10 -10 -5 0 -10 5 -10 10 0 6 5 10 10 10 6 0 10 -4 10 -10z
m343 3 c-7 -2 -19 -2 -25 0 -7 3 -2 5 12 5 14 0 19 -2 13 -5z m-301 -15 c-9
-9 -15 -9 -24 0 -9 9 -7 12 12 12 19 0 21 -3 12 -12z m173 -8 c-3 -5 -13 -10
-21 -10 -8 0 -14 5 -14 10 0 6 9 10 21 10 11 0 17 -4 14 -10z m2933 -5427
l234 -115 72 35 c39 20 106 61 149 92 90 64 74 64 226 -7 251 -118 681 -298
710 -298 6 0 11 -4 11 -8 0 -5 -30 -9 -67 -10 -76 -2 -297 -23 -538 -52 -88
-11 -234 -27 -325 -35 -91 -9 -171 -18 -179 -21 -27 -9 -389 -4 -481 6 -52 6
-151 18 -220 25 -69 8 -156 19 -195 25 -38 5 -151 19 -250 30 -99 11 -225 26
-280 35 -55 8 -112 15 -127 15 -16 0 -28 5 -28 10 0 6 10 10 23 10 46 1 510
176 792 300 152 67 207 87 225 82 8 -2 120 -56 248 -119z m2172 -673 c0 -5 -4
-10 -10 -10 -5 0 -10 5 -10 10 0 6 5 10 10 10 6 0 10 -4 10 -10z m-65 -130 c3
-5 -3 -10 -15 -10 -12 0 -18 5 -15 10 3 6 10 10 15 10 5 0 12 -4 15 -10z
m-3379 -74 c28 -28 34 -41 34 -77 -1 -123 -152 -149 -190 -34 -15 45 1 97 38
124 41 31 78 27 118 -13z m3581 8 c-3 -3 -12 -4 -19 -1 -8 3 -5 6 6 6 11 1 17
-2 13 -5z m110 -32 c9 -5 14 -122 21 -427 5 -231 7 -423 5 -427 -2 -5 -42 -8
-88 -8 -97 0 -115 11 -115 69 0 21 -3 41 -6 44 -4 3 -27 -16 -52 -44 -59 -66
-92 -82 -172 -83 -82 0 -150 32 -197 93 -46 60 -64 128 -64 247 0 122 22 189
81 257 92 104 254 127 364 52 20 -14 39 -25 41 -25 3 0 5 59 5 130 l0 130 83
0 c45 0 87 -4 94 -8z m-7031 -353 c0 -269 2 -322 14 -330 8 -5 91 -9 183 -9
l168 0 -3 -82 -3 -83 -245 -2 c-135 -1 -250 1 -256 5 -8 5 -13 126 -16 415
l-4 407 81 0 81 0 0 -321z m4828 263 c8 -16 33 -86 55 -158 22 -71 52 -165 67
-209 15 -44 29 -87 31 -95 7 -23 16 -2 112 253 l87 232 102 3 c78 2 102 0 102
-10 0 -42 53 -436 75 -563 8 -50 16 -122 18 -160 l2 -70 -60 -3 c-33 -1 -78 1
-100 6 l-40 8 -11 139 c-13 153 -32 336 -40 375 -7 34 -19 11 -29 -54 -9 -64
-88 -293 -131 -377 -26 -53 -40 -69 -65 -78 -18 -6 -33 -11 -35 -11 -17 0
-178 404 -194 488 -25 123 -35 69 -41 -214 -3 -148 -6 -270 -7 -271 -1 -2 -38
-3 -82 -3 -65 0 -82 3 -87 16 -3 9 2 161 11 338 9 176 16 349 16 384 l0 62
115 0 114 0 15 -28z m2286 -72 c0 -5 -2 -10 -4 -10 -3 0 -8 5 -11 10 -3 6 -1
10 4 10 6 0 11 -4 11 -10z m-1058 -26 c112 -36 169 -114 187 -259 9 -68 24
-301 26 -385 0 -25 -1 -25 -87 -28 -106 -3 -128 6 -128 53 0 44 -11 44 -45 -1
-44 -57 -80 -74 -160 -74 -87 0 -136 21 -191 82 -73 79 -81 186 -23 298 60
118 180 157 331 110 34 -11 64 -20 66 -20 1 0 2 16 2 35 0 26 -7 43 -26 60
-38 36 -80 40 -142 16 -46 -18 -53 -19 -59 -6 -9 26 4 95 22 115 27 30 137 32
227 4z m2770 11 c88 -23 145 -62 173 -120 26 -53 26 -47 40 -428 l5 -138 -103
3 -102 3 -9 53 c-5 28 -13 52 -17 52 -5 0 -17 -20 -27 -44 -47 -104 -220 -117
-317 -22 -60 59 -82 129 -66 210 30 145 98 205 248 221 50 6 75 3 153 -16 11
-3 16 6 18 33 3 30 -2 43 -23 64 -24 24 -32 26 -93 22 l-67 -3 -3 29 c-6 46 6
74 35 84 40 15 91 14 155 -3z m-1164 -40 c112 -61 183 -176 186 -300 l1 -59
-252 2 -253 3 0 -23 c0 -59 72 -123 152 -134 50 -7 90 9 146 57 18 16 43 29
55 29 35 -1 149 -18 155 -24 10 -11 -51 -86 -102 -125 -98 -75 -129 -86 -246
-86 -97 0 -109 2 -157 29 -28 15 -70 47 -93 70 -64 63 -82 106 -88 212 -9 171
37 277 146 341 61 36 93 42 202 40 83 -2 101 -6 148 -32z m-6050 -1 c60 -30
96 -69 129 -141 64 -139 25 -343 -84 -444 -54 -50 -98 -69 -158 -69 -80 0
-155 49 -175 116 -5 18 -6 -39 -3 -143 5 -131 3 -173 -6 -173 -7 0 -31 -8 -54
-19 -23 -10 -54 -21 -69 -25 -25 -6 -27 -4 -33 36 -12 80 -21 863 -10 870 15
11 195 10 195 -1 0 -5 -4 -21 -10 -35 -5 -15 -5 -28 0 -31 5 -3 11 4 15 15 11
36 86 68 161 69 35 1 66 -7 102 -25z m620 -1 c119 -58 184 -155 190 -284 8
-158 -51 -276 -171 -340 -54 -30 -71 -34 -132 -33 -95 1 -144 17 -196 63 -82
72 -128 198 -116 319 14 138 60 210 168 264 97 49 171 52 257 11z m730 -6 c61
-31 98 -90 112 -177 5 -36 10 -154 10 -263 l0 -198 -82 3 -83 3 -6 235 c-3
129 -6 236 -7 237 -19 24 -52 43 -75 43 -42 0 -64 -16 -87 -60 -18 -36 -20
-59 -20 -250 l0 -210 -77 0 c-43 0 -85 5 -93 10 -13 8 -15 58 -18 325 l-3 315
75 0 c43 0 77 -4 77 -10 1 -5 3 -14 4 -20 1 -5 3 -13 4 -17 0 -3 10 2 21 12
31 28 120 56 163 51 21 -2 59 -15 85 -29z m407 21 c2 -7 5 -158 7 -335 l4
-323 -77 0 c-54 0 -80 4 -88 14 -8 10 -14 78 -17 198 -2 101 -6 240 -8 311
l-5 127 52 1 c29 1 63 5 77 9 37 12 50 11 55 -2z m542 -13 c70 -35 144 -117
173 -190 20 -49 24 -79 24 -166 1 -98 -1 -108 -26 -146 -36 -55 -82 -96 -143
-130 -44 -25 -60 -28 -140 -28 -82 0 -97 3 -157 33 -136 67 -196 199 -168 374
13 84 40 137 105 201 55 56 108 75 206 76 61 1 84 -4 126 -24z m-3306 -200
c-1 -128 1 -220 8 -237 12 -32 58 -58 102 -58 25 0 42 10 76 45 l43 45 -5 -82
c-5 -75 -8 -85 -33 -106 -115 -99 -267 -75 -335 53 -21 38 -22 55 -24 290 0
138 3 252 7 255 5 3 43 5 86 5 l78 0 -3 -210z m423 193 c0 -10 -1 -157 -2
-328 l-2 -310 -57 1 c-88 2 -106 9 -116 49 -4 19 -9 162 -10 317 l-2 282 30 4
c17 2 59 4 95 3 55 -1 65 -4 64 -18z m8004 -29 c3 -11 2 -11 -7 1 -10 13 -12
13 -21 0 -5 -8 -10 -10 -10 -4 0 27 31 30 38 3z m-4804 -597 c9 -14 -12 -94
-29 -110 -17 -16 -17 -16 -11 8 19 63 19 73 2 82 -9 5 -14 13 -11 19 7 11 42
12 49 1z m5392 -276 c12 -13 12 -15 -6 -13 -11 1 -22 7 -24 14 -7 17 12 16 30
-1z m-51 -136 c3 -5 -1 -10 -9 -10 -9 0 -16 5 -16 10 0 6 4 10 9 10 6 0 13 -4
16 -10z m-1188 -162 c-4 -13 -7 -52 -7 -88 l0 -65 -442 2 c-244 1 -1903 3
-3688 4 -2276 2 -3247 6 -3252 13 -4 6 -8 41 -8 78 l0 67 48 3 c26 2 1691 4
3701 6 l3654 4 -6 -24z m1053 -74 c0 -8 -4 -14 -10 -14 -5 0 -10 2 -10 4 0 2
-3 12 -6 20 -5 12 -2 15 10 10 9 -3 16 -12 16 -20z m-63 -16 c-3 -7 -5 -2 -5
12 0 14 2 19 5 13 2 -7 2 -19 0 -25z m136 -18 c9 -11 17 -31 17 -45 0 -17 6
-25 18 -25 14 0 15 -2 2 -10 -20 -12 -39 6 -33 31 4 13 -3 29 -17 44 -13 14
-19 25 -14 25 5 0 17 -9 27 -20z m-23 -51 c0 -5 -4 -9 -10 -9 -5 0 -10 7 -10
16 0 8 5 12 10 9 6 -3 10 -10 10 -16z m-117 -3 c4 -10 1 -13 -8 -9 -8 3 -12 9
-9 14 7 12 11 11 17 -5z m77 -12 c0 -8 -4 -12 -10 -9 -5 3 -10 10 -10 16 0 5
5 9 10 9 6 0 10 -7 10 -16z m-130 -34 c26 -26 25 -33 -2 -24 -25 7 -39 24 -32
36 7 12 12 10 34 -12z m70 -11 c0 -5 -4 -9 -10 -9 -5 0 -10 7 -10 16 0 8 5 12
10 9 6 -3 10 -10 10 -16z m170 -14 c0 -1 -9 -5 -19 -8 -13 -3 -18 -1 -14 9 4
10 33 10 33 -1z m-343 -32 c-3 -3 -11 -2 -17 2 -9 6 -9 10 1 16 14 8 27 -7 16
-18z m374 -10 c10 -26 12 -27 19 -8 8 18 9 17 9 -7 1 -33 15 -43 31 -23 16 19
30 19 30 -1 0 -13 2 -13 18 2 16 16 17 16 20 1 2 -9 14 -20 28 -23 13 -3 24
-13 24 -20 0 -8 7 -17 15 -20 14 -6 13 -8 -2 -20 -17 -12 -16 -13 5 -14 13 0
21 -4 18 -9 -4 -5 -19 -4 -36 2 -26 10 -28 13 -16 23 13 9 12 13 -9 22 -21 10
-25 9 -25 -3 0 -15 -10 -19 -45 -15 -27 3 -45 19 -45 41 0 19 -60 42 -84 33
-8 -3 -16 2 -20 11 -4 12 -1 15 17 13 14 -2 22 2 23 12 1 8 2 18 3 23 2 15 12
6 22 -20z m-331 -7 c0 -3 -4 -8 -10 -11 -5 -3 -10 -1 -10 4 0 6 5 11 10 11 6
0 10 -2 10 -4z m265 -66 c3 -5 2 -10 -4 -10 -5 0 -13 5 -16 10 -3 6 -2 10 4
10 5 0 13 -4 16 -10z m457 -22 c-9 -9 -15 -9 -24 0 -9 9 -7 12 12 12 19 0 21
-3 12 -12z m-395 -18 c-14 -11 -33 -20 -44 -19 -15 0 -15 1 3 9 12 5 25 13 29
19 3 6 13 11 22 11 11 0 8 -6 -10 -20z m343 9 c0 -7 -14 -8 -41 -4 -31 5 -40
4 -38 -7 4 -35 -1 -41 -21 -23 -25 22 -25 32 -2 38 35 9 102 7 102 -4z m-252
-59 c14 -23 8 -40 -14 -40 -9 0 -14 11 -14 30 0 35 10 38 28 10z m222 -10 c0
-5 -4 -10 -10 -10 -5 0 -10 5 -10 10 0 6 5 10 10 10 6 0 10 -4 10 -10z m-380
-20 c0 -5 -5 -10 -11 -10 -5 0 -7 5 -4 10 3 6 8 10 11 10 2 0 4 -4 4 -10z
m430 0 c0 -5 -4 -10 -10 -10 -5 0 -10 5 -10 10 0 6 5 10 10 10 6 0 10 -4 10
-10z m-163 -17 c-12 -3 -16 -10 -12 -21 5 -13 3 -14 -6 -5 -14 14 -3 33 19 32
15 -1 14 -2 -1 -6z m183 -18 c0 -8 -4 -15 -10 -15 -5 0 -10 7 -10 15 0 8 5 15
10 15 6 0 10 -7 10 -15z m100 4 c0 -6 7 -17 15 -25 14 -14 21 -54 10 -54 -4 0
-45 79 -45 87 0 2 5 3 10 3 6 0 10 -5 10 -11z m-40 -30 c0 -5 -4 -9 -10 -9 -5
0 -10 7 -10 16 0 8 5 12 10 9 6 -3 10 -10 10 -16z m-387 -16 c-7 -2 -21 -2
-30 0 -10 3 -4 5 12 5 17 0 24 -2 18 -5z m223 -4 c3 -6 2 -15 -4 -21 -6 -6
-11 -2 -15 11 -5 22 7 29 19 10z m124 -4 c0 -8 5 -15 10 -15 6 0 10 -5 10 -11
0 -6 -7 -9 -15 -5 -9 3 -19 -3 -25 -14 -12 -23 -35 -26 -46 -7 -4 6 -4 9 1 5
10 -10 37 11 29 23 -3 5 0 9 5 9 6 0 11 7 11 15 0 8 5 15 10 15 6 0 10 -7 10
-15z m-3286 -7 c27 -12 43 -45 29 -59 -13 -13 -52 1 -46 17 11 29 -40 14 -73
-22 -38 -40 -48 -82 -15 -64 76 40 171 -35 171 -135 0 -66 -56 -125 -120 -125
-148 0 -170 313 -27 384 39 19 49 19 81 4z m649 -19 c37 -46 11 -122 -68 -199
-49 -47 -81 -97 -70 -108 4 -4 17 -7 28 -8 12 0 41 -1 63 -2 53 -2 94 -32 76
-55 -12 -14 -17 -14 -50 0 -28 12 -56 14 -114 10 -66 -5 -78 -4 -78 9 0 31 42
95 103 156 92 92 107 163 41 189 -21 7 -29 5 -45 -13 -10 -13 -18 -26 -19 -29
0 -3 -11 -11 -25 -17 -21 -10 -27 -9 -32 4 -9 25 15 64 50 80 44 20 116 11
140 -17z m-5336 -25 c25 -43 97 -257 108 -319 l7 -40 -36 38 c-20 20 -36 43
-36 51 0 23 -23 33 -87 38 l-61 4 -13 -45 c-7 -25 -16 -52 -22 -58 -12 -16
-47 -17 -47 -2 0 5 5 7 11 3 8 -4 9 0 4 15 -6 21 12 93 40 156 7 17 21 50 31
75 10 25 24 51 31 58 7 7 13 24 13 36 0 50 26 45 57 -10z m4929 35 c71 -18 85
-52 42 -108 -24 -32 -23 -35 16 -49 37 -14 66 -60 66 -107 0 -64 -90 -125
-165 -111 -29 6 -42 17 -66 54 -16 25 -25 50 -21 54 10 10 42 0 42 -13 0 -5 9
-18 20 -29 26 -26 80 -26 108 0 52 49 15 123 -69 136 -21 4 -39 10 -39 15 0 5
18 25 40 45 44 40 49 58 21 74 -30 15 -56 12 -76 -10 -23 -25 -45 -26 -45 -1
0 21 44 61 67 61 8 0 34 -5 59 -11z m698 -189 c7 -178 1 -219 -26 -192 -9 9
-14 59 -16 170 -2 86 -7 161 -12 166 -6 6 -27 -3 -55 -23 -62 -44 -76 -35 -25
17 45 45 97 67 116 48 7 -7 14 -77 18 -186z m2279 193 c-7 -2 -19 -2 -25 0 -7
3 -2 5 12 5 14 0 19 -2 13 -5z m-7135 -131 c3 -139 -7 -188 -44 -226 -46 -45
-134 -26 -134 29 0 36 19 40 49 11 65 -62 84 -23 79 172 l-3 143 25 -3 c25 -3
25 -3 28 -126z m1632 108 c26 -26 26 -80 0 -113 l-21 -26 29 -15 c16 -8 32
-23 36 -31 12 -33 6 -88 -14 -115 -24 -34 -63 -48 -150 -52 l-65 -3 -3 188 -2
187 85 0 c72 0 88 -3 105 -20z m508 -149 c-3 -158 -10 -181 -59 -201 -15 -7
-41 -9 -59 -6 -31 4 -70 31 -70 48 0 13 34 9 58 -8 32 -22 60 -9 72 34 5 20
10 94 10 164 0 129 7 150 38 125 11 -9 13 -44 10 -156z m4912 165 c0 -11 -19
-15 -25 -6 -3 5 1 10 9 10 9 0 16 -2 16 -4z m1107 -12 c13 -13 14 -19 3 -39
-13 -25 -40 -42 -40 -25 0 5 4 20 10 34 6 17 6 26 0 26 -6 0 -10 5 -10 10 0
15 19 12 37 -6z m-5237 -14 c12 -7 15 -41 15 -184 0 -160 -1 -176 -17 -176
-29 0 -42 41 -48 149 -4 91 -7 104 -23 107 -11 1 -21 5 -24 8 -9 9 8 26 28 26
16 0 18 5 13 25 -10 41 21 67 56 45z m4348 -18 c6 -18 -15 -14 -22 4 -4 10 -1
14 6 12 6 -2 14 -10 16 -16z m847 9 c3 -5 1 -12 -5 -16 -5 -3 -10 1 -10 9 0
18 6 21 15 7z m-980 -35 c18 -13 18 -14 -8 -9 -15 3 -27 9 -27 14 0 13 13 11
35 -5z m1060 -6 c-4 -13 0 -23 14 -32 12 -7 21 -19 21 -27 0 -10 -8 -7 -25 9
-24 23 -32 50 -18 63 11 12 15 7 8 -13z m45 -10 c0 -5 -2 -10 -4 -10 -3 0 -8
5 -11 10 -3 6 -1 10 4 10 6 0 11 -4 11 -10z m-8788 -96 l44 -96 35 89 c18 48
38 86 44 83 5 -3 9 -12 7 -20 -4 -19 -83 -244 -88 -249 -10 -11 -36 28 -60 92
-31 85 -45 116 -74 162 l-22 35 35 0 c33 0 35 -2 79 -96z m682 74 c3 -13 7
-63 9 -113 3 -49 8 -98 12 -107 11 -26 35 -30 74 -11 l36 18 3 118 c2 108 4
117 22 117 27 0 31 -25 28 -169 -3 -133 -10 -149 -47 -109 l-22 23 -42 -23
c-54 -29 -60 -28 -91 9 -25 29 -26 36 -26 150 0 112 1 119 20 119 12 0 21 -8
24 -22z m474 -3 c37 -31 52 -87 52 -194 0 -74 -2 -81 -20 -81 -10 0 -23 8 -28
17 -9 15 -13 15 -56 -1 -60 -23 -101 -14 -127 27 -28 47 -25 83 12 117 35 31
85 45 130 35 24 -5 29 -3 29 12 0 63 -82 86 -108 30 -11 -23 -16 -26 -28 -16
-20 16 -18 27 12 54 36 34 92 34 132 0z m188 -6 c-3 -17 -6 -85 -6 -151 0
-108 -2 -119 -17 -116 -16 3 -18 18 -18 151 l0 147 24 0 c21 0 23 -3 17 -31z
m149 -9 c25 -40 26 -43 15 -123 -16 -121 -19 -127 -46 -127 -32 0 -38 30 -31
146 6 87 5 94 -14 108 -27 18 -16 36 21 36 24 0 35 -8 55 -40z m1340 -67 c4
-60 9 -116 12 -126 7 -27 43 -37 75 -21 27 14 27 15 30 132 3 112 4 117 25
120 29 4 31 -9 36 -170 l3 -128 -24 0 c-15 0 -26 7 -29 20 -3 11 -9 20 -13 20
-4 0 -19 -9 -33 -20 -34 -27 -70 -25 -104 4 -26 22 -27 29 -31 125 -5 118 1
151 27 151 17 0 20 -11 26 -107z m428 80 c9 -9 17 -24 17 -34 0 -16 -3 -16
-49 4 -41 17 -52 18 -65 8 -28 -23 -18 -39 46 -73 96 -50 114 -116 45 -158
-47 -29 -81 -25 -125 14 -20 19 -34 38 -30 42 4 3 32 -3 63 -16 63 -25 85 -22
85 15 0 21 -9 29 -57 51 -71 31 -93 50 -93 81 0 77 103 119 163 66z m517 -8
c38 -36 54 -86 46 -142 -8 -57 -20 -80 -59 -103 -115 -71 -244 61 -192 196 23
61 64 87 128 81 35 -3 56 -12 77 -32z m-2194 1 c17 -13 19 -29 22 -140 2 -81
0 -126 -7 -126 -18 0 -22 18 -25 130 -2 66 -8 116 -15 123 -26 26 -7 36 25 13z
m6344 7 c0 -9 -48 -33 -66 -33 -6 0 -17 7 -25 16 -11 13 -9 14 14 9 17 -5 27
-3 27 4 0 6 11 11 25 11 14 0 25 -3 25 -7z m525 -33 c14 0 25 -4 25 -9 0 -15
-18 -23 -25 -11 -3 5 -15 10 -26 10 -13 0 -19 7 -19 23 1 20 2 20 11 5 5 -10
21 -18 34 -18z m240 -21 c-6 -19 9 -27 19 -10 3 4 17 6 31 3 15 -2 25 0 25 7
0 26 15 8 16 -20 1 -28 -1 -30 -25 -23 -14 4 -40 7 -57 7 -28 -1 -33 2 -36 28
-5 34 -2 40 18 32 9 -3 12 -13 9 -24z m-368 -9 c3 -11 10 -20 16 -20 5 0 2 -9
-8 -20 -18 -19 -17 -20 3 -20 12 0 22 -6 22 -14 0 -8 7 -16 15 -20 8 -3 15
-10 15 -16 0 -21 -29 -9 -70 30 -42 40 -60 49 -60 30 0 -5 -11 -10 -23 -10
-13 0 -32 -9 -42 -20 -17 -19 -45 -27 -45 -14 0 14 29 32 65 40 28 7 41 16 43
29 7 41 60 60 69 25z m-137 0 c0 -5 -4 -10 -10 -10 -5 0 -10 5 -10 10 0 6 5
10 10 10 6 0 10 -4 10 -10z m-630 -20 c0 -5 -2 -10 -4 -10 -3 0 -8 5 -11 10
-3 6 -1 10 4 10 6 0 11 -4 11 -10z m840 -10 c0 -5 -7 -10 -15 -10 -8 0 -15 5
-15 10 0 6 7 10 15 10 8 0 15 -4 15 -10z m43 -4 c12 -8 37 -14 55 -12 36 2 53
-11 31 -25 -11 -7 -10 -9 4 -9 9 0 17 -5 17 -11 0 -6 -10 -9 -22 -7 -13 2 -21
7 -20 12 5 13 -19 24 -48 22 -23 -1 -49 18 -50 37 0 10 8 9 33 -7z m182 3 c10
-14 1 -21 -19 -13 -9 3 -13 10 -10 15 7 12 21 11 29 -2z m-540 -29 c18 -34 18
-40 5 -40 -5 0 -10 7 -10 15 0 17 -35 21 -45 5 -3 -5 -11 -10 -16 -10 -6 0 -4
7 5 15 8 8 22 15 30 15 10 0 13 6 10 15 -11 27 5 16 21 -15z m115 20 c0 -5 -7
-10 -15 -10 -8 0 -15 5 -15 10 0 6 7 10 15 10 8 0 15 -4 15 -10z m386 -11 c3
-6 19 -9 35 -5 28 5 29 4 29 -30 0 -29 3 -34 13 -26 8 7 18 7 27 2 23 -15 34
-12 20 5 -7 8 -19 15 -26 15 -8 0 -14 4 -14 8 0 5 10 8 23 8 12 -1 21 4 20 12
-2 6 3 12 11 12 19 0 33 -23 18 -28 -7 -2 -12 -12 -12 -23 0 -13 7 -19 24 -19
26 0 38 -25 29 -60 -6 -23 -23 -27 -23 -6 0 9 -7 12 -20 9 -15 -4 -20 0 -20
14 0 16 -5 19 -29 15 -17 -2 -32 -12 -35 -21 -3 -9 -4 -3 -2 12 3 21 0 27 -11
23 -9 -4 -23 4 -34 18 -11 14 -26 23 -33 20 -10 -4 -13 3 -12 25 1 32 10 40
22 20z m-1009 -15 c-3 -3 -12 -4 -19 -1 -8 3 -5 6 6 6 11 1 17 -2 13 -5z m153
-9 c0 -8 -4 -15 -10 -15 -5 0 -10 7 -10 15 0 8 5 15 10 15 6 0 10 -7 10 -15z
m1060 0 c0 -8 -4 -15 -9 -15 -5 0 -11 7 -15 15 -3 9 0 15 9 15 8 0 15 -7 15
-15z m-824 -42 c-8 -8 -36 10 -36 25 0 13 3 12 20 -3 11 -10 18 -20 16 -22z
m494 2 c0 -8 -4 -15 -9 -15 -13 0 -22 16 -14 24 11 11 23 6 23 -9z m-4469 -5
c18 -10 28 -50 12 -50 -9 0 -53 45 -53 54 0 9 19 7 41 -4z m4319 0 c0 -5 -4
-10 -9 -10 -6 0 -13 5 -16 10 -3 6 1 10 9 10 9 0 16 -4 16 -10z m110 -5 c0 -8
-7 -15 -16 -15 -14 0 -14 3 -4 15 7 8 14 15 16 15 2 0 4 -7 4 -15z m115 -5
c-3 -5 -17 -10 -31 -10 -14 0 -22 4 -19 10 3 6 17 10 31 10 14 0 22 -4 19 -10z
m-408 -6 c-3 -3 -12 -4 -19 -1 -8 3 -5 6 6 6 11 1 17 -2 13 -5z m100 -10 c-3
-3 -12 -4 -19 -1 -8 3 -5 6 6 6 11 1 17 -2 13 -5z m43 -4 c0 -5 -4 -10 -10
-10 -5 0 -10 5 -10 10 0 6 5 10 10 10 6 0 10 -4 10 -10z m188 -9 c3 -8 -1 -12
-9 -9 -7 2 -15 10 -17 17 -3 8 1 12 9 9 7 -2 15 -10 17 -17z m-11378 -1 c0 -6
-8 -10 -17 -8 -21 3 -26 -33 -5 -40 7 -2 10 2 6 12 -4 11 -1 16 10 16 9 0 16
-8 16 -20 0 -15 -7 -20 -29 -20 -34 0 -51 31 -31 55 14 17 50 20 50 5z m61
-63 c-13 -13 -15 31 -3 60 5 14 8 10 10 -16 2 -18 -1 -38 -7 -44z m4559 65 c0
-13 -12 -22 -22 -16 -10 6 -1 24 13 24 5 0 9 -4 9 -8z m-4470 -36 c7 -17 9
-17 9 -3 1 9 6 17 11 17 9 0 5 -42 -7 -63 -8 -13 -23 4 -23 26 -1 20 -2 21
-14 5 -20 -27 -25 -21 -14 17 12 36 24 37 38 1z m11365 16 c-3 -3 -11 0 -18 7
-9 10 -8 11 6 5 10 -3 15 -9 12 -12z m-11614 -23 l22 -31 -22 7 c-14 4 -23 2
-27 -9 -9 -24 -24 -19 -24 8 0 30 9 56 20 56 5 0 19 -14 31 -31z m11259 22 c0
-11 -39 -21 -45 -11 -2 4 -2 10 2 14 10 9 43 7 43 -3z m160 -5 c0 -11 -19 -15
-25 -6 -3 5 1 10 9 10 9 0 16 -2 16 -4z m308 -39 c10 -3 6 -5 -10 -6 -22 -1
-25 2 -20 22 5 17 7 18 10 5 2 -9 11 -19 20 -21z m-11823 -7 c19 -37 19 -51 0
-26 -14 18 -15 18 -15 2 0 -13 -5 -16 -22 -11 -19 6 -21 5 -10 -6 13 -15 16
-29 5 -29 -15 0 -42 59 -32 66 6 3 16 1 22 -5 14 -14 30 -14 22 -1 -7 11 0 40
9 40 3 0 12 -13 21 -30z m465 -2 c0 -7 -5 -6 -15 2 -18 15 -20 -1 -2 -19 10
-11 7 -12 -13 -7 -23 6 -23 6 -7 -7 24 -20 21 -30 -5 -16 -13 6 -24 13 -26 14
-2 2 4 17 13 34 13 27 19 30 35 21 11 -6 20 -16 20 -22z m10847 6 c-3 -3 -12
-4 -19 -1 -8 3 -5 6 6 6 11 1 17 -2 13 -5z m580 -32 c-8 -10 -17 -25 -20 -34
-4 -10 -14 -18 -24 -18 -17 1 -17 1 0 11 9 5 17 18 17 27 0 22 20 43 32 36 5
-3 3 -13 -5 -22z m-107 9 c0 -13 -28 -22 -35 -11 -3 4 1 11 7 13 20 8 28 8 28
-2z m-11246 -32 c8 -12 12 -27 9 -35 -8 -21 -41 -27 -58 -10 -14 14 -14 18 1
41 20 31 28 31 48 4z m-642 -16 c18 -16 24 -33 11 -33 -10 1 -46 50 -37 50 4
0 16 -7 26 -17z m12018 -9 c0 -8 -4 -14 -9 -14 -11 0 -22 26 -14 34 9 9 23 -3
23 -20z m-12099 -93 c13 -11 22 -22 19 -25 -3 -3 -19 6 -35 19 -17 13 -25 24
-19 25 7 0 22 -9 35 -19z m466 -3 c30 -28 31 -80 1 -108 -70 -65 -172 37 -106
107 28 30 74 30 105 1z m337 1 c-19 -21 -19 -22 4 -15 16 6 22 3 22 -8 0 -9
-4 -16 -10 -16 -5 0 -10 -4 -10 -9 0 -4 12 -6 28 -4 21 4 24 2 12 -6 -18 -12
-70 -15 -70 -3 0 4 6 14 13 21 10 11 10 13 0 7 -27 -15 -35 6 -12 30 28 30 49
32 23 3z m-816 -58 c11 -7 10 -9 -3 -15 -11 -4 -14 -12 -10 -26 3 -11 2 -20
-3 -20 -15 0 -54 48 -47 59 7 13 45 14 63 2z m640 -43 c5 -7 18 -50 28 -96 23
-110 19 -113 -88 -80 -116 36 -119 45 -34 124 37 35 72 64 76 64 4 0 12 -6 18
-12z m241 -18 c-8 -4 -24 -11 -36 -14 -33 -10 -28 10 5 22 29 10 53 4 31 -8z
m11198 -26 c-3 -3 -12 -4 -19 -1 -8 3 -5 6 6 6 11 1 17 -2 13 -5z m-11720 -73
c24 -55 29 -60 84 -84 77 -33 80 -57 12 -86 -72 -31 -73 -32 -98 -91 -33 -78
-55 -79 -90 -2 -24 53 -32 62 -78 83 -89 41 -89 59 -2 98 36 16 65 34 65 39 0
5 9 30 20 56 30 67 54 63 87 -13z m548 1 c-3 -3 -10 -1 -14 6 -5 9 -17 11 -34
6 -17 -4 -27 -2 -27 5 0 6 11 11 25 11 15 0 28 7 32 17 5 14 8 12 16 -11 5
-15 6 -30 2 -34z m-945 22 c0 -3 -8 -13 -17 -22 -16 -16 -16 -17 0 -20 9 -2
17 -8 17 -13 0 -11 -28 -11 -55 1 -17 7 -17 9 -2 9 21 1 23 31 2 31 -8 0 -15
5 -15 10 0 6 16 10 35 10 19 0 35 -3 35 -6z m940 -74 c13 -8 12 -10 -2 -10
-10 0 -18 -7 -18 -15 0 -8 7 -15 15 -15 8 0 15 -4 15 -10 0 -13 -40 -13 -60 0
-10 6 -11 10 -2 10 6 0 12 7 12 15 0 8 -4 15 -10 15 -5 0 -10 5 -10 10 0 13
40 13 60 0z m-990 -41 c0 -7 11 -8 30 -4 19 4 30 3 30 -4 0 -6 -11 -11 -25
-11 -13 0 -29 -8 -34 -17 -9 -16 -10 -16 -11 -1 0 9 -3 23 -6 32 -3 9 -1 16 5
16 6 0 11 -5 11 -11z m70 -78 c0 -9 -35 -21 -60 -20 -8 0 -1 7 15 14 36 17 45
18 45 6z m869 -35 c28 -29 20 -46 -19 -46 -33 0 -48 15 -24 24 10 4 13 13 9
26 -9 27 7 25 34 -4z m-847 -38 c-15 -15 -16 -32 -2 -23 24 15 30 -8 9 -31
-28 -30 -49 -32 -23 -3 19 21 19 22 -3 15 -17 -6 -23 -3 -23 8 0 9 5 16 10 16
6 0 10 4 10 9 0 4 -12 6 -27 4 -22 -4 -25 -2 -13 6 8 6 28 11 45 11 22 0 26
-3 17 -12z m803 -50 c24 -11 34 -28 16 -28 -11 0 -59 39 -49 40 4 0 19 -5 33
-12z m-686 -82 c10 -12 9 -20 -4 -40 -20 -31 -23 -31 -47 -9 -22 20 -22 27 -2
47 19 20 38 20 53 2z m616 -44 c-7 -7 -45 29 -45 41 0 6 11 0 25 -13 14 -13
23 -26 20 -28z m-63 -12 c17 -31 7 -53 -15 -31 -17 17 -26 13 -20 -8 8 -32
-15 -33 -32 -2 -19 38 -19 52 0 27 14 -18 15 -18 15 -2 0 13 5 16 23 11 18 -6
20 -5 10 6 -14 15 -17 29 -5 29 4 0 15 -13 24 -30z m-464 -5 c1 -1 -3 -14 -9
-29 -14 -29 -49 -33 -57 -6 -5 13 -3 13 11 1 20 -16 23 -1 5 18 -11 11 -8 12
12 7 23 -6 23 -6 8 7 -25 20 -22 30 5 16 12 -6 23 -13 25 -14z m62 -48 c1 -20
2 -21 14 -4 20 26 26 21 15 -13 -13 -36 -22 -38 -37 -7 -8 17 -11 18 -11 5 -1
-10 -5 -18 -11 -18 -12 0 -12 0 1 38 12 35 29 34 29 -1z m290 3 c0 -25 -10
-50 -20 -50 -5 0 -18 14 -30 30 l-22 31 26 -7 c20 -5 26 -2 26 11 0 9 5 13 10
10 6 -3 10 -15 10 -25z m-209 -63 c-8 -8 -11 -2 -11 19 0 40 14 54 18 19 2
-15 -1 -32 -7 -38z m114 43 c4 -12 1 -27 -5 -35 -14 -17 -50 -20 -50 -5 0 6 8
10 18 8 11 -2 18 4 20 20 2 14 -2 22 -12 22 -10 0 -13 -6 -10 -15 4 -9 0 -15
-10 -15 -9 0 -16 8 -16 20 0 29 56 28 65 0z"/>
<path d="M8414 3596 c-71 -31 -109 -119 -102 -238 5 -87 20 -116 79 -156 62
-43 160 -8 201 72 31 60 33 221 2 263 -38 52 -128 82 -180 59z"/>
<path d="M7605 3398 c-80 -62 -71 -215 13 -232 68 -14 87 -14 117 -2 43 18 65
75 65 166 0 66 -1 71 -26 80 -14 6 -51 10 -83 10 -45 0 -65 -5 -86 -22z"/>
<path d="M10567 3434 c-4 -4 -33 -6 -66 -5 -50 2 -62 -1 -90 -25 -64 -53 -82
-135 -40 -180 23 -25 99 -40 148 -29 35 8 56 52 66 141 6 58 -4 112 -18 98z"/>
<path d="M9195 3585 c-34 -17 -87 -91 -83 -115 3 -12 27 -16 137 -18 l134 -3
-6 53 c-4 29 -14 60 -24 70 -26 25 -119 33 -158 13z"/>
<path d="M3148 3561 c-59 -51 -82 -113 -83 -215 l0 -88 43 -38 c50 -45 88 -56
136 -40 104 34 149 207 84 322 -24 42 -90 88 -126 88 -12 0 -36 -13 -54 -29z"/>
<path d="M3795 3555 c-87 -91 -86 -278 1 -355 29 -25 43 -30 87 -30 29 0 63 6
77 13 39 19 61 76 62 159 1 99 -17 154 -69 206 -36 36 -48 42 -84 42 -35 0
-47 -6 -74 -35z"/>
<path d="M5488 3564 c-61 -33 -100 -152 -84 -259 15 -100 128 -169 211 -129
60 28 70 53 70 174 0 87 -4 112 -21 145 -39 74 -113 104 -176 69z"/>
<path d="M8340 1760 c-49 -49 -2 -180 65 -180 18 0 31 11 50 43 39 67 31 113
-25 142 -39 20 -66 19 -90 -5z"/>
<path d="M3726 1852 c-12 -20 -47 -144 -42 -149 3 -3 26 -8 52 -11 l47 -5 -6
39 c-9 55 -43 139 -51 126z"/>
<path d="M6027 1873 c-4 -3 -7 -28 -7 -55 l0 -48 38 0 c21 0 48 7 60 16 28 20
30 69 3 84 -22 11 -84 14 -94 3z"/>
<path d="M6032 1664 c5 -77 14 -89 63 -80 49 10 87 48 83 84 -4 32 -32 48
-102 55 l-48 5 4 -64z"/>
<path d="M5031 1656 l-34 -35 31 -30 c37 -37 65 -39 98 -6 19 19 23 31 18 52
-16 65 -62 72 -113 19z"/>
<path d="M7630 1761 c-53 -52 -34 -153 34 -185 34 -16 39 -16 61 -2 28 18 39
51 40 113 0 90 -77 133 -135 74z"/>
<path d="M12291 1734 c0 -11 3 -14 6 -6 3 7 2 16 -1 19 -3 4 -6 -2 -5 -13z"/>
<path d="M12720 1590 c0 -5 4 -10 9 -10 6 0 13 5 16 10 3 6 -1 10 -9 10 -9 0
-16 -4 -16 -10z"/>
<path d="M1382 1448 c-7 -7 -12 -16 -12 -20 0 -12 28 -10 36 3 10 17 -10 31
-24 17z"/>
<path d="M755 730 c-11 -17 5 -32 21 -19 8 6 14 15 14 20 0 12 -27 11 -35 -1z"/>
<path d="M2680 12785 c0 -8 5 -15 10 -15 6 0 10 7 10 15 0 8 -4 15 -10 15 -5
0 -10 -7 -10 -15z"/>
<path d="M2724 12789 c-3 -6 -2 -15 4 -21 6 -6 8 -17 5 -24 -3 -8 0 -14 6 -14
6 0 11 16 11 35 0 34 -12 46 -26 24z"/>
<path d="M2772 12788 c0 -7 -3 -25 -5 -40 -3 -22 0 -28 14 -28 12 0 16 5 13
14 -4 11 0 13 15 9 15 -4 21 -1 21 10 0 12 8 14 38 10 56 -7 94 -5 106 7 17
17 -2 23 -85 27 -62 3 -79 1 -77 -9 2 -7 -2 -13 -7 -13 -6 0 -9 6 -9 13 1 6
-4 12 -10 12 -7 0 -13 -6 -14 -12z"/>
<path d="M3006 12765 c4 -8 7 -15 9 -15 2 0 5 7 9 15 3 9 0 15 -9 15 -9 0 -12
-6 -9 -15z"/>
<path d="M2858 12723 c7 -3 16 -2 19 1 4 3 -2 6 -13 5 -11 0 -14 -3 -6 -6z"/>
<path d="M2823 12700 c-34 -14 -28 -20 17 -20 29 0 40 4 40 15 0 17 -23 19
-57 5z"/>
<path d="M3185 12700 c-3 -5 -1 -10 4 -10 6 0 11 5 11 10 0 6 -2 10 -4 10 -3
0 -8 -4 -11 -10z"/>
<path d="M3003 12688 c2 -7 12 -12 21 -12 10 1 16 -6 16 -19 0 -15 3 -18 11
-10 8 8 7 17 -3 32 -14 22 -53 30 -45 9z"/>
<path d="M3250 12680 c0 -5 5 -10 10 -10 6 0 10 5 10 10 0 6 -4 10 -10 10 -5
0 -10 -4 -10 -10z"/>
<path d="M3280 12660 c0 -5 5 -10 10 -10 6 0 10 5 10 10 0 6 -4 10 -10 10 -5
0 -10 -4 -10 -10z"/>
<path d="M2900 12650 c0 -5 5 -10 10 -10 6 0 10 5 10 10 0 6 -4 10 -10 10 -5
0 -10 -4 -10 -10z"/>
<path d="M2715 12640 c-3 -6 1 -7 9 -4 11 4 16 0 16 -10 0 -9 -5 -15 -11 -13
-6 1 -14 -4 -16 -11 -3 -8 1 -10 11 -6 9 3 22 1 30 -5 14 -12 26 -5 26 16 0 7
-6 13 -14 13 -8 0 -16 7 -20 15 -6 17 -22 20 -31 5z"/>
<path d="M3080 12640 c0 -12 42 -30 68 -30 11 0 5 8 -16 20 -36 22 -52 25 -52
10z"/>
<path d="M2650 12630 c0 -14 26 -23 41 -15 8 6 7 10 -2 16 -19 12 -39 11 -39
-1z"/>
<path d="M2838 12633 c7 -3 16 -2 19 1 4 3 -2 6 -13 5 -11 0 -14 -3 -6 -6z"/>
<path d="M2806 12579 c-30 -35 -32 -45 -11 -53 12 -4 14 0 9 19 -5 21 -3 24
11 19 10 -4 21 -1 26 7 8 12 12 11 24 -5 14 -18 15 -18 15 -2 0 19 -23 46 -38
46 -6 0 -22 -14 -36 -31z"/>
<path d="M3185 12591 c-3 -5 -1 -12 5 -16 5 -3 10 1 10 9 0 18 -6 21 -15 7z"/>
<path d="M2988 12583 c7 -3 16 -2 19 1 4 3 -2 6 -13 5 -11 0 -14 -3 -6 -6z"/>
<path d="M2525 12570 c-8 -13 -1 -24 14 -19 6 3 7 10 2 18 -6 10 -10 10 -16 1z"/>
<path d="M3216 12572 c-3 -6 -1 -14 5 -17 15 -10 25 3 12 16 -7 7 -13 7 -17 1z"/>
<path d="M2618 12553 c12 -8 22 -22 22 -29 0 -8 5 -14 10 -14 6 0 10 -7 10
-15 0 -9 13 -24 30 -33 16 -9 30 -20 30 -24 0 -5 7 -8 15 -8 8 0 15 5 15 10 0
6 -7 10 -15 10 -8 0 -15 5 -15 10 0 14 12 13 50 -6 21 -11 28 -19 20 -24 -9
-6 -9 -9 -1 -15 9 -5 9 -11 0 -22 -10 -12 -10 -16 2 -24 8 -5 17 -9 22 -9 10
0 9 18 -3 25 -6 4 -6 15 1 32 5 14 8 27 7 27 -2 1 -15 9 -29 18 -14 9 -39 18
-55 20 -41 5 -74 29 -74 54 0 22 -18 34 -48 33 -14 0 -12 -3 6 -16z"/>
<path d="M2739 12568 c-7 -22 -3 -48 8 -48 7 0 13 11 13 25 0 14 -4 25 -10 25
-5 0 -10 -1 -11 -2z"/>
<path d="M2680 12540 c0 -13 28 -25 38 -16 3 4 0 11 -8 16 -20 13 -30 12 -30
0z"/>
<path d="M2820 12517 c0 -17 21 -57 30 -57 17 0 11 26 -10 45 -11 10 -20 15
-20 12z"/>
<path d="M3015 12510 c3 -5 10 -10 16 -10 5 0 9 5 9 10 0 6 -7 10 -16 10 -8 0
-12 -4 -9 -10z"/>
<path d="M3598 12513 c6 -2 18 -2 25 0 6 3 1 5 -13 5 -14 0 -19 -2 -12 -5z"/>
<path d="M2957 12493 c-8 -13 7 -38 23 -38 8 0 16 -8 18 -17 2 -11 -3 -18 -13
-18 -12 0 -14 -4 -6 -17 6 -11 21 -18 40 -18 17 0 30 2 28 5 -1 3 -11 24 -21
48 -15 34 -23 42 -40 40 -13 -2 -20 2 -18 10 2 13 -4 16 -11 5z"/>
<path d="M3280 12480 c0 -5 5 -10 11 -10 5 0 7 5 4 10 -3 6 -8 10 -11 10 -2 0
-4 -4 -4 -10z"/>
<path d="M2640 12450 c0 -5 -7 -10 -15 -10 -8 0 -15 -4 -15 -10 0 -5 6 -7 14
-4 9 3 16 -2 18 -12 2 -13 14 -19 42 -21 37 -2 38 -1 21 17 -10 11 -27 18 -39
17 -15 -1 -20 3 -18 16 2 9 0 17 -3 17 -3 0 -5 -4 -5 -10z"/>
<path d="M3152 12444 c9 -9 21 -13 28 -9 14 9 -5 25 -30 25 -12 0 -12 -3 2
-16z"/>
<path d="M2860 12440 c0 -5 5 -10 10 -10 6 0 10 5 10 10 0 6 -4 10 -10 10 -5
0 -10 -4 -10 -10z"/>
<path d="M2896 12421 c-4 -7 -5 -15 -2 -18 9 -9 19 4 14 18 -4 11 -6 11 -12 0z"/>
<path d="M3078 12403 c7 -3 16 -2 19 1 4 3 -2 6 -13 5 -11 0 -14 -3 -6 -6z"/>
<path d="M2894 12385 c-16 -12 -17 -14 -2 -15 23 0 48 11 48 21 0 14 -24 11
-46 -6z"/>
<path d="M3110 12391 c0 -6 4 -13 10 -16 6 -3 7 1 4 9 -7 18 -14 21 -14 7z"/>
<path d="M2993 12344 c-9 -20 -8 -24 5 -24 8 0 12 3 9 7 -4 3 -2 12 4 19 5 7
6 14 2 17 -5 3 -13 -6 -20 -19z"/>
<path d="M2630 12351 c0 -6 4 -13 10 -16 6 -3 7 1 4 9 -7 18 -14 21 -14 7z"/>
<path d="M3070 12351 c0 -5 7 -14 15 -21 13 -10 15 -9 15 9 0 12 -6 21 -15 21
-8 0 -15 -4 -15 -9z"/>
<path d="M2880 12312 c0 -5 7 -13 16 -16 10 -4 14 -1 12 6 -5 15 -28 23 -28
10z"/>
<path d="M3045 12310 c4 -6 11 -8 16 -5 14 9 11 15 -7 15 -8 0 -12 -5 -9 -10z"/>
<path d="M2820 12296 c0 -9 -8 -16 -20 -16 -11 0 -23 -7 -26 -15 -4 -8 -14
-16 -23 -16 -9 -1 -2 -5 14 -8 32 -8 55 3 55 25 0 8 7 14 16 14 17 0 14 22 -4
28 -7 2 -12 -3 -12 -12z"/>
<path d="M2888 12253 c7 -3 16 -2 19 1 4 3 -2 6 -13 5 -11 0 -14 -3 -6 -6z"/>
<path d="M2830 12240 c-13 -8 -12 -10 3 -10 9 0 17 5 17 10 0 12 -1 12 -20 0z"/>
<path d="M2935 12241 c4 -7 17 -10 28 -7 12 3 27 0 34 -6 8 -6 16 -8 20 -4 11
10 -3 17 -48 23 -32 5 -40 3 -34 -6z"/>
<path d="M2885 12230 c-9 -15 -1 -23 21 -18 15 3 16 4 1 16 -11 9 -17 10 -22
2z"/>
<path d="M3135 12230 c3 -5 10 -10 16 -10 5 0 9 5 9 10 0 6 -7 10 -16 10 -8 0
-12 -4 -9 -10z"/>
<path d="M2793 12188 c2 -7 10 -13 17 -13 7 0 15 6 18 13 2 7 -5 12 -18 12
-13 0 -20 -5 -17 -12z"/>
<path d="M2890 12170 c0 -5 5 -10 11 -10 5 0 7 5 4 10 -3 6 -8 10 -11 10 -2 0
-4 -4 -4 -10z"/>
<path d="M3025 12170 c-3 -5 -1 -10 4 -10 6 0 11 5 11 10 0 6 -2 10 -4 10 -3
0 -8 -4 -11 -10z"/>
<path d="M3060 12153 c0 -11 34 -29 73 -37 15 -4 27 -2 27 4 0 5 -9 10 -19 10
-11 0 -21 4 -23 9 -4 13 -58 25 -58 14z"/>
<path d="M3200 12092 c0 -6 -8 -13 -17 -15 -16 -4 -16 -5 -1 -6 18 -1 34 16
24 26 -3 4 -6 1 -6 -5z"/>
<path d="M3080 12074 c-13 -15 -6 -17 24 -5 17 6 17 8 3 14 -8 3 -21 -1 -27
-9z"/>
<path d="M3170 12040 c0 -5 4 -10 9 -10 6 0 13 5 16 10 3 6 -1 10 -9 10 -9 0
-16 -4 -16 -10z"/>
<path d="M3150 12000 c-9 -6 -10 -10 -3 -10 6 0 15 5 18 10 8 12 4 12 -15 0z"/>
<path d="M3250 11987 c0 -9 9 -21 20 -27 11 -6 20 -9 20 -7 0 2 -9 14 -20 27
-16 18 -20 19 -20 7z"/>
<path d="M3785 11980 c-3 -5 1 -10 10 -10 9 0 13 5 10 10 -3 6 -8 10 -10 10
-2 0 -7 -4 -10 -10z"/>
<path d="M3080 11972 c0 -17 29 -34 47 -28 9 4 13 10 7 15 -15 14 -54 23 -54
13z"/>
<path d="M3165 11960 c-3 -5 -1 -10 4 -10 6 0 11 5 11 10 0 6 -2 10 -4 10 -3
0 -8 -4 -11 -10z"/>
<path d="M3445 11950 c-3 -5 1 -10 9 -10 9 0 16 5 16 10 0 6 -4 10 -9 10 -6 0
-13 -4 -16 -10z"/>
<path d="M3197 11915 c3 -8 9 -12 14 -9 12 7 11 11 -5 17 -10 4 -13 1 -9 -8z"/>
<path d="M3486 11915 c4 -8 12 -15 20 -15 8 0 14 7 14 15 0 8 -9 15 -20 15
-13 0 -18 -5 -14 -15z"/>
<path d="M3680 11889 c0 -12 29 -38 43 -39 12 0 8 20 -7 36 -17 17 -36 18 -36
3z"/>
<path d="M2865 11860 c3 -5 13 -10 21 -10 8 0 26 -11 39 -25 14 -13 25 -19 25
-12 0 7 3 22 6 35 6 21 3 22 -45 22 -32 0 -50 -4 -46 -10z"/>
<path d="M3096 11861 c-5 -7 -3 -18 3 -24 14 -14 20 -6 11 17 -5 15 -9 16 -14
7z"/>
<path d="M3345 11850 c3 -5 10 -10 16 -10 5 0 9 5 9 10 0 6 -7 10 -16 10 -8 0
-12 -4 -9 -10z"/>
<path d="M2960 11833 c1 -11 26 -43 34 -43 16 0 0 45 -16 48 -10 2 -18 0 -18
-5z"/>
<path d="M3107 11766 c-5 -13 21 -46 35 -46 16 0 13 38 -3 48 -24 15 -26 15
-32 -2z"/>
<path d="M3280 11765 c0 -10 10 -15 28 -15 26 1 26 1 8 15 -25 19 -36 19 -36
0z"/>
<path d="M2946 11745 c-4 -10 1 -15 16 -15 17 0 18 2 8 15 -7 8 -14 15 -15 15
-2 0 -5 -7 -9 -15z"/>
<path d="M3470 11750 c0 -5 7 -10 15 -10 8 0 15 5 15 10 0 6 -7 10 -15 10 -8
0 -15 -4 -15 -10z"/>
<path d="M3320 11724 c0 -17 22 -14 28 4 2 7 -3 12 -12 12 -9 0 -16 -7 -16
-16z"/>
<path d="M3440 11704 c0 -8 5 -12 10 -9 6 3 10 10 10 16 0 5 -4 9 -10 9 -5 0
-10 -7 -10 -16z"/>
<path d="M4436 11695 c10 -8 24 -14 29 -14 6 0 1 6 -9 14 -11 8 -24 15 -30 15
-5 0 -1 -7 10 -15z"/>
<path d="M3434 11655 c-9 -21 -2 -26 13 -10 8 9 9 16 3 20 -6 3 -13 -1 -16
-10z"/>
<path d="M3755 11650 c3 -5 8 -10 11 -10 2 0 4 5 4 10 0 6 -5 10 -11 10 -5 0
-7 -4 -4 -10z"/>
<path d="M3040 11634 c0 -11 -5 -25 -12 -32 -7 -7 -8 -13 -2 -13 42 -6 55 -5
64 6 7 8 1 10 -23 7 -29 -5 -31 -3 -18 12 11 13 11 20 3 28 -9 9 -12 7 -12 -8z"/>
<path d="M3780 11620 c0 -5 5 -10 10 -10 6 0 10 5 10 10 0 6 -4 10 -10 10 -5
0 -10 -4 -10 -10z"/>
<path d="M3120 11610 c0 -5 9 -10 19 -10 11 0 23 5 26 10 4 6 -5 10 -19 10
-14 0 -26 -4 -26 -10z"/>
<path d="M3310 11600 c-8 -5 -11 -12 -8 -16 10 -9 38 3 38 16 0 12 -10 13 -30
0z"/>
<path d="M3680 11586 c0 -9 5 -16 10 -16 6 0 10 4 10 9 0 6 -4 13 -10 16 -5 3
-10 -1 -10 -9z"/>
<path d="M3160 11580 c0 -5 9 -10 20 -10 11 0 20 5 20 10 0 6 -9 10 -20 10
-11 0 -20 -4 -20 -10z"/>
<path d="M3333 11571 c-39 -20 -61 -51 -36 -51 9 0 25 8 36 18 15 12 21 14 24
5 8 -22 23 -14 23 11 0 33 -9 36 -47 17z"/>
<path d="M3725 11570 c3 -5 11 -10 16 -10 6 0 7 5 4 10 -3 6 -11 10 -16 10 -6
0 -7 -4 -4 -10z"/>
<path d="M3480 11560 c0 -5 7 -10 16 -10 8 0 12 5 9 10 -3 6 -10 10 -16 10 -5
0 -9 -4 -9 -10z"/>
<path d="M3630 11554 c0 -17 22 -14 28 4 2 7 -3 12 -12 12 -9 0 -16 -7 -16
-16z"/>
<path d="M3450 11520 c0 -5 5 -10 10 -10 6 0 10 5 10 10 0 6 -4 10 -10 10 -5
0 -10 -4 -10 -10z"/>
<path d="M3830 11450 c0 -5 5 -10 11 -10 5 0 7 5 4 10 -3 6 -8 10 -11 10 -2 0
-4 -4 -4 -10z"/>
<path d="M3412 11420 c-12 -11 -26 -20 -32 -20 -22 0 -9 -22 20 -33 17 -6 30
-14 30 -18 0 -3 11 -4 25 -1 46 8 24 36 -28 34 l-29 -1 23 25 c28 30 21 41 -9
14z"/>
<path d="M3340 11381 c0 -5 7 -11 14 -14 10 -4 13 -1 9 9 -6 15 -23 19 -23 5z"/>
<path d="M3310 11340 c0 -12 -7 -20 -16 -20 -9 0 -14 -7 -12 -17 5 -27 24 -26
36 2 15 32 15 55 2 55 -5 0 -10 -9 -10 -20z"/>
<path d="M3402 11299 c1 -13 8 -23 13 -21 15 3 12 35 -3 40 -9 3 -13 -3 -10
-19z"/>
<path d="M3327 11286 c-4 -10 -1 -13 8 -9 8 3 12 9 9 14 -7 12 -11 11 -17 -5z"/>
<path d="M3603 11284 c16 -8 31 -13 35 -10 8 8 1 12 -33 20 l-30 6 28 -16z"/>
<path d="M3340 11235 c0 -8 5 -15 10 -15 6 0 10 7 10 15 0 8 -4 15 -10 15 -5
0 -10 -7 -10 -15z"/>
<path d="M3330 11170 c0 -5 7 -10 15 -10 8 0 15 5 15 10 0 6 -7 10 -15 10 -8
0 -15 -4 -15 -10z"/>
<path d="M3350 11120 c-18 -12 -2 -12 25 0 13 6 15 9 5 9 -8 0 -22 -4 -30 -9z"/>
<path d="M3426 11109 c-12 -11 -15 -19 -7 -19 13 0 41 24 41 34 0 11 -15 5
-34 -15z"/>
<path d="M3608 11083 c7 -3 16 -2 19 1 4 3 -2 6 -13 5 -11 0 -14 -3 -6 -6z"/>
<path d="M6585 11061 c11 -5 36 -11 55 -15 l35 -6 -35 14 c-19 8 -44 15 -55
15 l-20 0 20 -8z"/>
<path d="M3295 11050 c-8 -13 15 -24 27 -12 6 6 4 11 -6 15 -8 3 -18 2 -21 -3z"/>
<path d="M3390 11045 c-18 -21 -3 -32 16 -13 10 9 12 18 6 22 -5 3 -15 -1 -22
-9z"/>
<path d="M3587 11025 c-4 -8 -2 -17 3 -20 6 -4 10 -2 10 3 0 5 10 14 23 20 22
11 22 11 -4 11 -15 1 -29 -6 -32 -14z"/>
<path d="M3446 10995 c3 -16 11 -35 16 -42 5 -7 7 -21 3 -33 -4 -11 -2 -20 4
-20 6 0 11 21 11 50 0 59 20 69 35 18 7 -23 17 -34 33 -36 29 -4 28 5 -3 30
-14 11 -25 28 -25 38 0 14 -9 19 -40 22 -41 4 -41 4 -34 -27z"/>
<path d="M3330 10990 c0 -16 5 -30 11 -30 6 0 9 7 6 15 -4 8 -2 17 3 20 15 9
12 25 -5 25 -10 0 -15 -10 -15 -30z"/>
<path d="M6751 11016 c2 -2 18 -6 34 -10 22 -5 26 -4 15 4 -14 9 -59 15 -49 6z"/>
<path d="M6828 10993 c7 -3 16 -2 19 1 4 3 -2 6 -13 5 -11 0 -14 -3 -6 -6z"/>
<path d="M3425 10970 c-3 -5 -1 -10 4 -10 6 0 11 5 11 10 0 6 -2 10 -4 10 -3
0 -8 -4 -11 -10z"/>
<path d="M6935 10960 c28 -12 37 -12 30 0 -3 6 -16 10 -28 9 -21 0 -21 -1 -2
-9z"/>
<path d="M3598 10953 c7 -3 16 -2 19 1 4 3 -2 6 -13 5 -11 0 -14 -3 -6 -6z"/>
<path d="M3320 10915 c0 -8 5 -15 10 -15 6 0 10 7 10 15 0 8 -4 15 -10 15 -5
0 -10 -7 -10 -15z"/>
<path d="M3580 10920 c0 -5 9 -10 20 -10 11 0 20 5 20 10 0 6 -9 10 -20 10
-11 0 -20 -4 -20 -10z"/>
<path d="M7168 10893 c7 -3 16 -2 19 1 4 3 -2 6 -13 5 -11 0 -14 -3 -6 -6z"/>
<path d="M3490 10860 c0 -6 70 -40 83 -40 4 0 7 5 7 10 0 6 -7 10 -15 10 -8 0
-15 4 -15 9 0 5 -13 11 -30 13 -16 3 -30 2 -30 -2z"/>
<path d="M7305 10855 c17 -8 39 -14 50 -14 11 0 0 7 -25 15 -56 17 -64 17 -25
-1z"/>
<path d="M3360 10850 c0 -13 49 -44 57 -36 9 8 -27 46 -44 46 -7 0 -13 -4 -13
-10z"/>
<path d="M3280 10820 c0 -6 7 -10 15 -10 8 0 15 2 15 4 0 2 -7 6 -15 10 -8 3
-15 1 -15 -4z"/>
<path d="M3323 10801 c-2 -26 15 -38 23 -17 3 9 11 13 16 10 6 -4 9 -1 6 7 -8
23 -43 23 -45 0z"/>
<path d="M3280 10789 c0 -5 5 -7 10 -4 6 3 10 8 10 11 0 2 -4 4 -10 4 -5 0
-10 -5 -10 -11z"/>
<path d="M3508 10793 c7 -3 16 -2 19 1 4 3 -2 6 -13 5 -11 0 -14 -3 -6 -6z"/>
<path d="M3390 10773 c1 -17 46 -41 60 -33 11 7 7 11 -14 20 -16 6 -33 13 -37
16 -5 3 -9 2 -9 -3z"/>
<path d="M3950 10750 c0 -5 7 -10 16 -10 8 0 12 5 9 10 -3 6 -10 10 -16 10 -5
0 -9 -4 -9 -10z"/>
<path d="M6355 10745 c-27 -8 -158 -39 -290 -70 -132 -31 -361 -92 -510 -135
-148 -43 -299 -86 -335 -95 -109 -27 -320 -95 -405 -129 -44 -18 -101 -40
-126 -50 -75 -27 -238 -130 -331 -208 -47 -40 -223 -187 -390 -326 -166 -139
-326 -274 -355 -300 l-52 -47 -31 -220 c-17 -121 -37 -249 -45 -285 -8 -36
-26 -141 -40 -235 -44 -285 -62 -390 -116 -655 -28 -140 -55 -271 -59 -290
-37 -160 -39 -121 23 -467 32 -175 75 -410 96 -523 62 -325 87 -473 112 -650
l23 -165 65 -60 c135 -125 179 -165 291 -260 63 -54 135 -116 160 -139 173
-158 382 -347 420 -377 25 -20 80 -69 122 -108 l77 -72 43 22 c24 12 68 39 98
59 98 66 411 253 545 325 39 21 81 46 95 56 34 24 314 180 370 206 25 11 118
55 207 97 89 42 167 76 172 76 47 0 62 147 64 651 l2 398 -30 31 c-50 54 -360
252 -540 346 -487 255 -536 273 -855 304 -134 13 -767 39 -951 40 -70 0 -151
4 -180 10 -72 13 -203 80 -275 141 -33 27 -77 62 -98 79 -21 16 -37 30 -35 30
2 0 128 3 279 7 337 7 1378 -25 1542 -47 55 -8 154 -33 261 -66 29 -9 21 29
-19 86 -19 28 -60 106 -90 173 -59 132 -82 161 -147 177 -44 12 -92 28 -437
147 -118 41 -314 107 -435 147 -230 77 -369 133 -445 181 -47 29 -290 262
-290 278 0 12 209 0 316 -19 45 -7 119 -27 165 -44 46 -17 145 -53 219 -80
731 -263 1077 -408 1170 -487 45 -39 196 -330 280 -540 29 -73 56 -133 60
-133 12 0 319 -179 432 -251 59 -38 112 -69 117 -69 8 0 11 166 11 534 l0 535
-48 58 c-54 64 -263 267 -387 376 -105 92 -276 250 -392 361 -111 106 -134
148 -168 307 -14 63 -28 127 -32 144 l-6 29 41 -33 c23 -18 44 -37 48 -42 3
-5 65 -51 137 -103 73 -52 170 -129 217 -173 47 -43 144 -130 215 -193 72 -63
175 -158 231 -211 109 -104 150 -136 162 -125 4 4 10 296 13 649 5 570 7 649
23 702 28 96 67 209 76 218 12 13 48 -92 65 -191 21 -116 32 -402 41 -1004 4
-275 11 -498 16 -498 4 0 63 53 130 118 238 228 344 329 423 402 44 41 105 98
135 126 30 28 100 91 155 140 55 48 128 117 163 152 35 35 65 63 67 61 2 -2
-7 -77 -20 -165 -26 -176 -37 -206 -110 -303 -25 -32 -205 -218 -401 -412
-196 -195 -385 -387 -421 -428 l-66 -75 7 -90 c3 -50 6 -254 6 -453 1 -200 4
-363 8 -363 4 0 26 13 49 28 23 15 108 68 188 117 80 50 183 113 228 140 l81
51 69 149 c38 83 89 200 114 260 53 131 85 168 192 224 163 84 570 274 651
303 47 16 213 81 370 143 363 144 397 153 590 156 92 2 114 -1 112 -11 -6 -24
-130 -176 -174 -215 -102 -88 -124 -96 -1023 -399 l-390 -131 -22 -40 c-12
-22 -35 -74 -49 -115 -45 -126 -67 -172 -102 -218 -18 -24 -31 -46 -29 -48 3
-3 33 4 67 16 134 45 323 59 1090 80 234 6 430 6 545 0 99 -5 209 -10 243 -10
46 0 63 -3 60 -12 -9 -27 -170 -145 -254 -187 l-89 -45 -390 -12 c-857 -28
-988 -46 -1280 -177 -137 -61 -379 -193 -456 -248 -135 -96 -358 -279 -364
-299 -4 -11 -4 -49 -1 -83 4 -34 13 -219 21 -412 8 -192 17 -391 21 -441 l6
-92 96 -45 c54 -26 120 -59 147 -75 28 -15 134 -74 237 -130 328 -178 870
-496 957 -561 30 -23 57 -41 59 -41 15 0 158 128 342 305 52 50 196 186 320
302 124 116 281 264 349 329 l123 119 39 205 c54 281 112 596 144 775 14 83
37 202 51 265 15 63 30 133 35 155 14 66 10 136 -11 210 -37 128 -94 413 -135
679 -14 87 -50 296 -81 465 -31 168 -71 396 -89 505 -24 142 -38 202 -49 208
-8 5 -59 43 -113 86 -54 42 -136 106 -182 142 -45 36 -187 152 -314 258 -261
217 -369 295 -489 352 -121 58 -469 185 -648 236 -85 25 -209 61 -275 81 -240
71 -333 95 -605 158 -85 19 -162 37 -170 39 -8 2 -37 -2 -65 -9z m-362 -207
c14 -18 38 -46 52 -63 79 -88 135 -201 159 -318 16 -78 22 -416 8 -464 -6 -20
-17 -10 -92 83 -127 159 -185 246 -206 311 -22 69 -32 208 -21 278 10 64 56
205 67 205 4 0 19 -15 33 -32z m906 -21 c20 -51 51 -275 51 -361 0 -135 -29
-227 -95 -306 -20 -25 -76 -85 -123 -134 l-87 -88 -6 98 c-10 159 -9 395 2
444 14 61 45 120 119 225 69 97 109 145 122 145 5 0 12 -11 17 -23z m-1594
-276 c48 -49 106 -115 129 -145 66 -89 119 -279 132 -475 3 -47 7 -107 9 -133
3 -50 -4 -59 -25 -32 -7 8 -50 42 -95 74 -85 61 -185 161 -209 208 -46 92 -61
165 -61 307 0 144 12 285 25 285 4 0 47 -40 95 -89z m2269 52 c40 -251 31
-463 -24 -590 -26 -62 -116 -151 -217 -217 -39 -25 -75 -46 -79 -46 -10 0 4
327 20 469 10 78 22 133 36 162 19 39 233 259 252 259 3 0 9 -17 12 -37z
m-1867 -245 c18 -29 73 -100 124 -158 129 -148 243 -303 283 -385 46 -92 56
-157 56 -347 l0 -158 -98 80 c-105 85 -218 213 -258 291 -44 89 -79 243 -124
556 -11 79 -23 150 -26 158 -14 35 14 11 43 -37z m-1015 -54 c72 -37 166 -93
209 -126 157 -118 191 -182 255 -467 24 -112 43 -205 41 -208 -5 -5 -246 194
-315 259 -107 103 -223 295 -285 473 -19 55 -38 108 -42 118 -4 9 -4 17 0 17
3 0 65 -30 137 -66z m3558 47 c0 -29 -48 -157 -84 -226 -91 -172 -248 -390
-361 -500 -82 -80 -145 -135 -153 -135 -6 0 -5 18 3 44 7 24 27 128 45 231 59
351 92 398 379 529 154 71 171 76 171 57z m-1130 -172 c0 -154 -26 -387 -51
-464 -37 -111 -118 -243 -198 -323 -86 -85 -187 -172 -202 -172 -7 0 -9 76 -7
228 3 190 6 233 21 267 18 39 132 196 260 355 38 47 89 119 115 161 26 43 50
75 55 72 4 -2 7 -58 7 -124z m-2725 -264 c197 -61 222 -77 371 -233 72 -75
165 -177 208 -227 122 -141 257 -276 394 -393 69 -59 166 -143 215 -187 49
-44 117 -104 151 -134 64 -57 172 -153 265 -236 94 -84 141 -132 141 -144 0
-12 -22 -33 -173 -165 -53 -47 -104 -86 -112 -86 -8 0 -27 19 -41 43 -24 37
-82 125 -131 197 -54 79 -133 182 -177 230 -81 88 -107 106 -426 291 -79 46
-169 125 -234 209 l-50 63 65 -7 c132 -14 224 -17 239 -7 12 8 12 13 0 36 -14
27 -50 46 -270 145 -273 124 -440 248 -536 400 -33 52 -149 253 -162 281 -1 4
30 -4 70 -16 40 -13 127 -39 193 -60z m4225 71 c0 -3 -24 -56 -54 -119 -87
-183 -231 -355 -374 -444 -98 -62 -282 -154 -394 -198 -88 -33 -98 -40 -98
-62 l0 -25 170 7 c94 4 170 4 170 1 0 -20 -86 -129 -146 -186 -91 -86 -174
-150 -317 -245 -139 -92 -204 -153 -351 -330 -135 -163 -264 -297 -282 -293
-13 3 -214 196 -214 206 0 26 272 299 575 575 121 111 255 237 297 280 69 71
195 225 259 317 73 105 139 185 222 268 75 76 107 101 172 132 124 60 365 136
365 116z m343 -464 c-200 -227 -337 -348 -468 -411 -140 -68 -455 -186 -455
-171 0 5 13 36 29 67 17 32 48 96 71 143 23 47 60 109 83 139 116 151 384 270
676 300 58 6 107 13 109 16 3 2 9 2 14 -1 4 -3 -22 -40 -59 -82z m-4966 18
c222 -39 314 -68 405 -130 71 -47 205 -174 250 -236 30 -41 52 -70 117 -157
29 -39 48 -73 43 -75 -18 -6 -237 56 -336 95 -50 19 -149 65 -219 101 -128 66
-130 68 -313 247 -101 99 -184 184 -184 188 0 9 -4 9 237 -33z m-227 -940
c239 -14 338 -27 455 -56 109 -28 326 -114 445 -177 84 -45 248 -149 249 -158
1 -3 -23 -5 -51 -5 -29 0 -123 -6 -208 -13 -225 -20 -390 -11 -511 28 -147 48
-356 178 -519 325 -25 23 -56 49 -70 59 l-25 18 30 -5 c17 -3 109 -10 205 -16z
m5420 -8 c0 -4 -33 -35 -72 -70 -40 -34 -107 -91 -148 -127 -181 -157 -416
-226 -720 -211 -194 10 -281 18 -278 26 4 10 146 115 213 157 91 58 302 153
382 172 80 19 181 36 313 50 93 10 310 12 310 3z m-240 -972 c41 -5 128 -15
193 -21 65 -7 114 -16 110 -20 -19 -17 -252 -141 -307 -163 -159 -63 -128 -61
-851 -60 -626 1 -755 6 -757 29 -1 15 248 137 343 168 66 21 125 30 278 43
386 32 838 43 991 24z m-4359 -15 c324 -26 455 -43 528 -71 103 -39 333 -153
327 -163 -11 -18 -202 -23 -796 -22 -589 2 -618 2 -692 22 -82 22 -161 65
-292 158 l-78 56 168 16 c222 21 592 23 835 4z m2443 -442 c15 -65 34 -156 42
-203 40 -226 68 -369 122 -645 69 -343 76 -385 68 -385 -9 0 -169 125 -190
149 -44 49 -116 776 -102 1043 10 199 21 207 60 41z m171 92 c33 -8 119 -18
190 -21 128 -6 131 -7 183 -42 62 -41 245 -233 234 -244 -4 -4 -104 -9 -222
-10 -248 -3 -260 -1 -338 80 -32 34 -62 80 -94 150 -52 114 -54 111 47 87z
m-1465 -94 c-50 -101 -85 -140 -157 -179 -77 -41 -151 -51 -319 -46 -198 7
-226 11 -215 32 20 37 218 231 256 250 37 19 58 21 258 22 l217 0 -40 -79z
m168 32 c46 -157 41 -509 -14 -1060 l-5 -52 -86 -61 c-47 -33 -87 -59 -90 -57
-4 4 39 347 91 737 14 102 32 241 41 310 17 140 33 220 44 220 4 0 13 -17 19
-37z m2602 10 c88 -32 152 -68 212 -117 62 -51 115 -115 85 -103 -9 3 -86 -7
-169 -24 -198 -40 -400 -50 -477 -24 -75 24 -265 154 -374 254 l-29 26 44 6
c24 4 180 6 348 5 281 -2 309 -4 360 -23z m-3463 -1 l42 -7 -86 -70 c-174
-141 -276 -199 -387 -218 -52 -9 -83 -7 -172 7 -206 33 -389 68 -397 76 -4 4
26 39 67 77 84 79 178 131 258 144 61 9 612 3 675 -9z m3727 -663 c-3 -5 -10
-7 -15 -3 -5 3 -7 10 -3 15 3 5 10 7 15 3 5 -3 7 -10 3 -15z m59 4 c-7 -2 -19
-2 -25 0 -7 3 -2 5 12 5 14 0 19 -2 13 -5z m-113 -12 c0 -5 -10 -16 -22 -24
-23 -16 -23 -16 -2 -22 11 -4 28 -20 38 -36 10 -17 30 -32 49 -37 34 -9 43
-35 15 -40 -11 -2 -18 3 -18 11 0 11 -7 13 -22 9 l-22 -5 22 -10 c24 -11 28
-22 11 -33 -8 -4 -7 -9 2 -16 11 -7 11 -11 2 -15 -7 -2 -13 -14 -13 -25 0 -11
-8 -22 -20 -25 -11 -3 -20 -12 -20 -20 0 -12 -3 -13 -13 -4 -15 12 -30 4 -21
-10 8 -14 34 -10 51 6 8 9 20 14 27 12 17 -6 7 -48 -17 -67 l-21 -17 22 -28
c29 -36 28 -45 -5 -45 -25 0 -25 1 -9 13 17 12 17 14 2 20 -10 4 -16 1 -16 -9
0 -8 -12 -26 -26 -39 -14 -13 -23 -28 -20 -33 3 -6 -1 -15 -10 -22 -8 -7 -13
-19 -10 -27 3 -7 1 -13 -4 -13 -6 0 -10 -16 -10 -35 0 -19 -5 -35 -10 -35 -13
0 -53 22 -62 35 -4 6 -8 0 -8 -12 0 -13 4 -23 9 -23 5 0 12 -8 15 -17 7 -17
-10 -34 -28 -27 -6 2 -17 0 -25 -5 -13 -8 -13 -12 0 -27 12 -15 12 -16 -9 -10
-18 6 -22 4 -22 -13 0 -12 7 -21 15 -21 8 0 15 -4 15 -10 0 -5 -12 -10 -26
-10 -20 0 -25 -4 -20 -16 4 -9 2 -13 -5 -8 -8 4 -9 -1 -4 -15 5 -18 2 -21 -19
-21 -19 0 -26 -5 -26 -20 0 -14 -9 -21 -36 -26 -31 -6 -35 -10 -32 -33 3 -22
-1 -26 -19 -24 -13 2 -23 -2 -23 -8 0 -8 -4 -8 -15 1 -8 6 -20 8 -26 4 -9 -5
-7 -10 7 -15 16 -6 14 -8 -10 -8 -24 -1 -27 -3 -16 -16 10 -12 10 -15 -1 -16
-8 0 -4 -4 9 -10 37 -14 16 -28 -36 -24 -35 3 -43 2 -29 -6 25 -15 21 -30 -7
-23 -19 4 -28 0 -41 -20 -21 -31 -55 -34 -80 -6 -10 11 -24 20 -32 20 -16 0
-17 -22 -1 -38 9 -9 8 -12 -8 -13 -10 -1 -25 -1 -33 0 -7 2 -10 -2 -6 -9 4 -6
-7 -4 -25 5 -33 17 -66 13 -54 -6 4 -6 3 -10 -2 -7 -5 2 -24 10 -41 17 -18 7
-33 17 -33 22 0 4 -7 5 -17 2 -12 -5 -14 -3 -8 7 5 8 3 11 -5 8 -7 -2 -36 9
-64 24 -28 15 -62 33 -76 39 -63 29 -70 33 -70 40 0 5 8 6 18 3 14 -5 14 -4 2
4 -10 8 -18 8 -27 0 -8 -6 -16 -8 -20 -4 -3 3 -1 6 5 6 6 0 9 7 6 15 -4 9 -14
14 -23 13 -10 -2 -17 5 -19 20 -2 12 -9 22 -15 21 -36 -4 -48 1 -38 19 13 25
-3 52 -21 34 -6 -6 -21 -12 -31 -12 -17 0 -18 2 -6 17 13 15 11 16 -13 10 -15
-4 -30 -3 -33 3 -3 6 5 10 19 10 14 0 27 4 30 9 3 4 -7 6 -22 4 -18 -3 -23 -2
-14 5 10 7 10 11 -2 21 -11 10 -13 18 -6 31 14 27 13 30 -15 30 -31 0 -45 28
-21 42 21 12 11 28 -17 28 -20 0 -23 6 -24 40 -2 31 2 40 15 41 16 0 16 1 0 7
-15 6 -14 12 8 57 13 28 29 49 34 48 6 -2 10 4 10 13 0 11 -6 14 -20 9 -11 -3
-21 -3 -21 2 -8 58 -7 63 12 63 11 0 33 7 48 15 16 8 30 13 32 12 2 -1 -2 4
-10 11 -13 10 -11 12 12 12 48 0 29 -44 -22 -52 -14 -1 -26 -9 -29 -15 -6 -19
34 -16 53 3 8 9 22 13 30 10 23 -8 18 -26 -7 -27 -22 -1 -22 -1 2 -8 18 -5 21
-9 12 -15 -7 -4 -19 -5 -27 -2 -9 3 -15 -1 -15 -9 0 -8 6 -15 14 -15 7 0 21
-12 31 -26 13 -21 22 -25 43 -19 40 10 49 22 29 42 -16 16 -17 16 -17 -6 0
-14 -5 -21 -12 -19 -8 3 -12 22 -12 49 1 28 -4 48 -13 54 -20 15 -13 60 9 59
11 -1 15 4 11 15 -5 13 -4 14 8 3 12 -11 11 -15 -4 -27 -12 -8 -14 -15 -8 -20
6 -3 11 -1 11 5 0 7 6 7 22 -1 17 -9 24 -9 33 4 15 21 82 57 105 57 10 0 21
-4 25 -10 3 -5 12 -7 20 -3 17 6 47 -15 40 -28 -3 -4 -12 -6 -19 -3 -7 3 -16
-3 -20 -12 -9 -23 -2 -28 23 -14 12 6 27 8 33 4 8 -5 9 -2 5 10 -6 14 -3 16
16 10 12 -3 19 -3 15 1 -4 5 -3 14 3 22 9 10 15 10 25 2 19 -15 18 -39 -1 -39
-8 0 -15 -4 -15 -10 0 -5 -7 -10 -15 -10 -20 0 -19 -6 4 -29 21 -21 31 -18 31
10 0 30 29 49 73 49 30 0 48 6 60 20 20 24 37 26 37 5 0 -8 -5 -15 -12 -15 -6
0 -9 -2 -6 -5 9 -9 38 6 38 20 0 7 7 18 16 26 13 10 17 10 24 0 5 -9 18 -11
37 -7 16 4 42 2 56 -3 35 -14 56 -5 50 20 -6 21 20 26 46 10 8 -5 32 -3 60 6
25 7 53 12 62 10 12 -3 15 2 11 18 -8 45 78 97 119 72 17 -10 22 -9 32 4 7 9
19 19 27 22 9 5 6 6 -7 3 -20 -3 -33 10 -33 34 0 4 35 7 78 6 42 -2 69 -1 60
1 -10 3 -18 9 -18 14 0 5 -7 9 -15 9 -32 0 -9 33 30 43 33 8 45 7 45 -2z m78
-30 c12 -11 22 -22 22 -26 0 -3 -10 -4 -22 0 l-23 6 22 -19 c15 -13 18 -23 12
-33 -5 -8 -9 -9 -9 -4 0 6 -10 15 -22 20 -21 10 -32 38 -23 63 6 16 16 15 43
-7z m-1198 -228 c-1 -11 -26 -43 -34 -43 -11 0 -6 38 7 43 19 8 27 8 27 0z
m335 -33 c3 -5 1 -10 -4 -10 -6 0 -11 5 -11 10 0 6 2 10 4 10 3 0 8 -4 11 -10z
m385 -680 c0 -5 -6 -10 -14 -10 -8 0 -18 5 -21 10 -3 6 3 10 14 10 12 0 21 -4
21 -10z m-130 -104 c0 -2 -7 -6 -15 -10 -8 -3 -15 -1 -15 4 0 6 7 10 15 10 8
0 15 -2 15 -4z m-237 -40 c4 -10 1 -13 -9 -9 -7 3 -14 9 -14 14 0 14 17 10 23
-5z m154 8 c-3 -3 -12 -4 -19 -1 -8 3 -5 6 6 6 11 1 17 -2 13 -5z"/>
<path d="M8465 6070 c3 -5 8 -10 11 -10 2 0 4 5 4 10 0 6 -5 10 -11 10 -5 0
-7 -4 -4 -10z"/>
<path d="M8240 5950 c0 -5 9 -10 20 -10 11 0 20 5 20 10 0 6 -9 10 -20 10 -11
0 -20 -4 -20 -10z"/>
<path d="M7637 5930 c-22 -26 -23 -50 0 -28 15 16 17 16 29 0 16 -23 27 -11
18 22 -7 31 -23 33 -47 6z"/>
<path d="M8138 5943 c7 -3 16 -2 19 1 4 3 -2 6 -13 5 -11 0 -14 -3 -6 -6z"/>
<path d="M8071 5914 c0 -11 3 -14 6 -6 3 7 2 16 -1 19 -3 4 -6 -2 -5 -13z"/>
<path d="M8185 5910 c3 -5 10 -10 16 -10 5 0 9 5 9 10 0 6 -7 10 -16 10 -8 0
-12 -4 -9 -10z"/>
<path d="M8298 5913 c7 -3 16 -2 19 1 4 3 -2 6 -13 5 -11 0 -14 -3 -6 -6z"/>
<path d="M8000 5880 c0 -5 9 -10 21 -10 11 0 17 5 14 10 -3 6 -13 10 -21 10
-8 0 -14 -4 -14 -10z"/>
<path d="M7896 5871 c14 -14 84 -25 84 -13 0 11 -33 22 -69 22 -16 0 -21 -4
-15 -9z"/>
<path d="M7686 5843 c-13 -13 -5 -30 19 -41 34 -16 55 -15 55 1 0 15 -64 49
-74 40z"/>
<path d="M8645 5780 c3 -5 13 -10 21 -10 8 0 14 5 14 10 0 6 -9 10 -21 10 -11
0 -17 -4 -14 -10z"/>
<path d="M7368 5753 c6 -2 18 -2 25 0 6 3 1 5 -13 5 -14 0 -19 -2 -12 -5z"/>
<path d="M7730 5726 c0 -2 7 -6 15 -10 8 -3 15 -1 15 4 0 6 -7 10 -15 10 -8 0
-15 -2 -15 -4z"/>
<path d="M7350 5700 c0 -5 5 -10 11 -10 5 0 7 5 4 10 -3 6 -8 10 -11 10 -2 0
-4 -4 -4 -10z"/>
<path d="M8320 5354 c0 -8 5 -12 10 -9 6 3 10 10 10 16 0 5 -4 9 -10 9 -5 0
-10 -7 -10 -16z"/>
<path d="M3346 10714 c-4 -9 -3 -21 2 -26 12 -12 23 15 12 31 -5 9 -9 8 -14
-5z"/>
<path d="M3477 10709 c8 -8 16 -8 30 0 16 9 14 10 -11 11 -22 0 -27 -3 -19
-11z"/>
<path d="M3530 10705 c0 -8 7 -15 15 -15 14 0 19 -11 16 -37 -1 -7 3 -13 9
-13 5 0 10 6 10 14 0 8 3 21 6 30 4 11 1 16 -10 16 -9 0 -16 5 -16 10 0 6 -7
10 -15 10 -8 0 -15 -7 -15 -15z"/>
<path d="M3295 10690 c3 -5 8 -10 11 -10 2 0 4 5 4 10 0 6 -5 10 -11 10 -5 0
-7 -4 -4 -10z"/>
<path d="M3450 10655 c7 -8 19 -15 27 -15 13 0 13 3 3 15 -7 8 -19 15 -27 15
-13 0 -13 -3 -3 -15z"/>
<path d="M3600 10660 c0 -5 9 -10 21 -10 11 0 17 5 14 10 -3 6 -13 10 -21 10
-8 0 -14 -4 -14 -10z"/>
<path d="M3920 10650 c0 -5 5 -10 10 -10 6 0 10 5 10 10 0 6 -4 10 -10 10 -5
0 -10 -4 -10 -10z"/>
<path d="M3282 10639 c-21 -8 -28 -32 -9 -30 4 1 15 1 25 1 11 0 18 8 19 20 2
22 -1 23 -35 9z"/>
<path d="M3815 10640 c3 -5 11 -10 16 -10 6 0 7 5 4 10 -3 6 -11 10 -16 10 -6
0 -7 -4 -4 -10z"/>
<path d="M3531 10614 c0 -11 3 -14 6 -6 3 7 2 16 -1 19 -3 4 -6 -2 -5 -13z"/>
<path d="M4110 10620 c0 -5 4 -10 9 -10 6 0 13 5 16 10 3 6 -1 10 -9 10 -9 0
-16 -4 -16 -10z"/>
<path d="M3360 10605 c0 -9 5 -15 11 -13 6 2 11 8 11 13 0 5 -5 11 -11 13 -6
2 -11 -4 -11 -13z"/>
<path d="M3480 10610 c0 -5 9 -10 20 -10 11 0 20 5 20 10 0 6 -9 10 -20 10
-11 0 -20 -4 -20 -10z"/>
<path d="M4185 10610 c3 -5 8 -10 11 -10 2 0 4 5 4 10 0 6 -5 10 -11 10 -5 0
-7 -4 -4 -10z"/>
<path d="M3705 10590 c3 -5 11 -10 16 -10 6 0 7 5 4 10 -3 6 -11 10 -16 10 -6
0 -7 -4 -4 -10z"/>
<path d="M4100 10575 c0 -9 6 -12 15 -9 8 4 15 10 15 15 0 5 -7 9 -15 9 -8 0
-15 -7 -15 -15z"/>
<path d="M3396 10571 c-4 -7 -5 -15 -2 -18 9 -9 19 4 14 18 -4 11 -6 11 -12 0z"/>
<path d="M3588 10553 c12 -2 30 -2 40 0 9 3 -1 5 -23 4 -22 0 -30 -2 -17 -4z"/>
<path d="M3290 10538 c0 -7 7 -21 14 -31 19 -24 31 -4 14 23 -14 22 -28 26
-28 8z"/>
<path d="M3474 10519 c-3 -5 6 -9 20 -9 31 0 34 6 6 13 -11 3 -23 1 -26 -4z"/>
<path d="M4005 10520 c3 -5 8 -10 11 -10 2 0 4 5 4 10 0 6 -5 10 -11 10 -5 0
-7 -4 -4 -10z"/>
<path d="M3648 10513 c6 -2 18 -2 25 0 6 3 1 5 -13 5 -14 0 -19 -2 -12 -5z"/>
<path d="M3537 10493 c-17 -17 -5 -33 25 -33 l32 0 -22 20 c-23 22 -26 23 -35
13z"/>
<path d="M3415 10480 c3 -5 10 -10 16 -10 5 0 9 5 9 10 0 6 -7 10 -16 10 -8 0
-12 -4 -9 -10z"/>
<path d="M3501 10467 c-7 -9 -11 -24 -7 -32 6 -17 32 -20 41 -5 3 6 2 10 -4
10 -5 0 -11 10 -13 22 -3 19 -4 20 -17 5z"/>
<path d="M3630 10468 c5 -7 19 -24 30 -38 16 -20 19 -22 20 -7 0 9 -4 17 -9
17 -5 0 -11 9 -14 20 -3 11 -12 20 -21 20 -12 0 -14 -3 -6 -12z"/>
<path d="M3425 10431 c-3 -5 -1 -12 5 -16 5 -3 10 1 10 9 0 18 -6 21 -15 7z"/>
<path d="M3320 10420 c0 -5 4 -10 9 -10 6 0 13 5 16 10 3 6 -1 10 -9 10 -9 0
-16 -4 -16 -10z"/>
<path d="M9200 4894 c0 -8 5 -12 10 -9 6 4 8 11 5 16 -9 14 -15 11 -15 -7z"/>
<path d="M11730 4475 c7 -9 15 -13 17 -11 7 7 -7 26 -19 26 -6 0 -6 -6 2 -15z"/>
<path d="M8880 4465 c0 -8 4 -15 10 -15 5 0 7 7 4 15 -4 8 -8 15 -10 15 -2 0
-4 -7 -4 -15z"/>
<path d="M8755 4380 c-3 -5 1 -10 9 -10 8 0 18 5 21 10 3 6 -1 10 -9 10 -8 0
-18 -4 -21 -10z"/>
<path d="M8563 4226 c7 -20 37 -31 54 -20 30 19 24 29 -17 29 -22 0 -39 -4
-37 -9z"/>
<path d="M8690 4190 c0 -5 9 -10 21 -10 11 0 17 5 14 10 -3 6 -13 10 -21 10
-8 0 -14 -4 -14 -10z"/>
<path d="M8660 4072 c0 -5 9 -17 20 -27 11 -10 20 -24 20 -32 0 -7 11 -13 26
-13 32 0 30 33 -3 38 -12 2 -25 12 -28 23 -6 18 -35 27 -35 11z"/>
<path d="M8785 3980 c3 -5 8 -10 11 -10 2 0 4 5 4 10 0 6 -5 10 -11 10 -5 0
-7 -4 -4 -10z"/>
<path d="M10700 3730 c-9 -6 -10 -10 -3 -10 6 0 15 5 18 10 8 12 4 12 -15 0z"/>
<path d="M11450 2860 c0 -5 7 -10 15 -10 8 0 15 5 15 10 0 6 -7 10 -15 10 -8
0 -15 -4 -15 -10z"/>
<path d="M11445 2808 c-9 -28 -9 -71 0 -74 6 -2 16 0 24 5 11 7 10 13 -4 35
-16 24 -16 26 -1 26 10 0 14 5 11 10 -9 14 -25 13 -30 -2z"/>
<path d="M11745 2790 c-3 -5 -1 -10 4 -10 6 0 11 5 11 10 0 6 -2 10 -4 10 -3
0 -8 -4 -11 -10z"/>
<path d="M12720 2760 c0 -5 5 -10 11 -10 5 0 7 5 4 10 -3 6 -8 10 -11 10 -2 0
-4 -4 -4 -10z"/>
<path d="M11425 2703 c15 -16 55 -26 55 -14 0 6 -6 11 -14 11 -8 0 -23 3 -33
6 -12 5 -15 4 -8 -3z"/>
<path d="M11585 2640 c4 -6 11 -8 16 -5 14 9 11 15 -7 15 -8 0 -12 -5 -9 -10z"/>
<path d="M11385 2630 c-3 -6 5 -10 19 -10 14 0 28 5 31 10 3 6 -5 10 -19 10
-14 0 -28 -4 -31 -10z"/>
<path d="M11521 2614 c0 -11 3 -14 6 -6 3 7 2 16 -1 19 -3 4 -6 -2 -5 -13z"/>
<path d="M11345 2608 c-4 -11 -1 -24 9 -33 18 -18 21 -5 6 30 -7 18 -8 18 -15
3z"/>
<path d="M11552 2603 c5 -25 28 -28 28 -4 0 12 -6 21 -16 21 -9 0 -14 -7 -12
-17z"/>
<path d="M11420 2580 c0 -14 49 -32 62 -24 6 4 -4 13 -22 20 -39 17 -40 17
-40 4z"/>
<path d="M11600 2566 c0 -7 10 -16 23 -20 33 -9 49 -7 42 4 -3 6 -15 10 -26
10 -10 0 -19 5 -19 10 0 6 -4 10 -10 10 -5 0 -10 -6 -10 -14z"/>
<path d="M12366 2531 c-4 -5 -2 -12 3 -15 5 -4 12 -2 15 3 4 5 2 12 -3 15 -5
4 -12 2 -15 -3z"/>
<path d="M11635 2490 c-3 -5 1 -10 9 -10 9 0 16 5 16 10 0 6 -4 10 -9 10 -6 0
-13 -4 -16 -10z"/>
<path d="M11700 2466 c0 -8 5 -18 10 -21 6 -3 10 1 10 9 0 8 -4 18 -10 21 -5
3 -10 -1 -10 -9z"/>
<path d="M11995 2450 c3 -5 8 -10 11 -10 2 0 4 5 4 10 0 6 -5 10 -11 10 -5 0
-7 -4 -4 -10z"/>
<path d="M12436 2441 c-7 -10 22 -37 30 -28 9 8 -3 37 -15 37 -5 0 -12 -4 -15
-9z"/>
<path d="M11365 2429 c-4 -6 -4 -13 -1 -16 8 -8 36 5 36 17 0 13 -27 13 -35
-1z"/>
<path d="M11504 2411 c-2 -2 5 -11 16 -18 17 -12 22 -12 35 1 8 8 15 16 15 18
0 5 -61 4 -66 -1z"/>
<path d="M12018 2413 c7 -3 16 -2 19 1 4 3 -2 6 -13 5 -11 0 -14 -3 -6 -6z"/>
<path d="M11600 2381 c0 -21 6 -30 22 -34 32 -9 43 3 16 17 -12 7 -22 20 -22
29 1 9 -2 17 -7 17 -5 0 -9 -13 -9 -29z"/>
<path d="M12492 2381 c4 -13 18 -16 19 -4 0 4 -5 9 -11 12 -7 2 -11 -2 -8 -8z"/>
<path d="M11675 2330 c-4 -6 -3 -16 3 -22 6 -6 12 -6 17 2 4 6 3 16 -3 22 -6
6 -12 6 -17 -2z"/>
<path d="M11760 2310 c0 -5 7 -10 15 -10 8 0 15 5 15 10 0 6 -7 10 -15 10 -8
0 -15 -4 -15 -10z"/>
<path d="M11470 2285 c0 -9 -7 -18 -15 -21 -17 -7 -21 -34 -4 -34 5 0 8 4 4 9
-7 13 2 17 59 26 42 6 48 4 43 -9 -5 -12 0 -16 21 -16 16 0 33 -5 39 -11 8 -8
13 -8 17 0 4 6 1 11 -7 11 -8 0 -17 7 -21 15 -3 8 -15 15 -26 15 -11 0 -20 5
-20 10 0 6 -9 10 -20 10 -11 0 -20 -4 -20 -10 0 -5 -4 -10 -10 -10 -5 0 -10 7
-10 15 0 8 -7 15 -15 15 -8 0 -15 -7 -15 -15z"/>
<path d="M11830 2286 c0 -6 11 -13 25 -14 14 -1 25 2 25 7 0 5 -11 11 -25 13
-15 3 -25 1 -25 -6z"/>
<path d="M12240 2280 c0 -5 5 -10 10 -10 6 0 10 5 10 10 0 6 -4 10 -10 10 -5
0 -10 -4 -10 -10z"/>
<path d="M11660 2270 c0 -5 5 -10 10 -10 6 0 10 5 10 10 0 6 -4 10 -10 10 -5
0 -10 -4 -10 -10z"/>
<path d="M11694 2255 c-19 -14 -19 -14 2 -15 12 0 25 -7 28 -16 10 -26 18 -10
10 20 -7 30 -13 32 -40 11z"/>
<path d="M12187 2264 c-8 -8 1 -24 13 -24 4 0 10 7 14 15 5 15 -14 21 -27 9z"/>
<path d="M12300 2260 c0 -5 5 -10 10 -10 6 0 10 5 10 10 0 6 -4 10 -10 10 -5
0 -10 -4 -10 -10z"/>
<path d="M12113 2253 c9 -2 23 -2 30 0 6 3 -1 5 -18 5 -16 0 -22 -2 -12 -5z"/>
<path d="M11894 2235 c4 -11 -2 -15 -27 -15 -24 0 -28 -3 -17 -10 37 -24 106
0 78 28 -17 17 -41 15 -34 -3z"/>
<path d="M12632 2216 c7 -8 15 -12 17 -11 5 6 -10 25 -20 25 -5 0 -4 -6 3 -14z"/>
<path d="M12543 2193 c9 -2 25 -2 35 0 9 3 1 5 -18 5 -19 0 -27 -2 -17 -5z"/>
<path d="M11601 2174 c0 -11 3 -14 6 -6 3 7 2 16 -1 19 -3 4 -6 -2 -5 -13z"/>
<path d="M11920 2164 c0 -16 -6 -24 -17 -25 -15 0 -15 -2 2 -9 29 -12 75 -12
75 1 0 5 -5 7 -10 4 -6 -3 -13 2 -17 11 -4 10 -2 19 5 22 21 7 13 20 -13 20
-20 0 -25 -6 -25 -24z"/>
<path d="M12420 2180 c0 -5 5 -10 10 -10 6 0 10 5 10 10 0 6 -4 10 -10 10 -5
0 -10 -4 -10 -10z"/>
<path d="M11868 2173 c6 -2 18 -2 25 0 6 3 1 5 -13 5 -14 0 -19 -2 -12 -5z"/>
<path d="M12120 2167 c0 -14 31 -47 43 -47 3 0 -1 14 -9 30 -16 31 -34 40 -34
17z"/>
<path d="M12290 2165 c0 -8 7 -15 15 -15 8 0 15 -5 15 -11 0 -8 4 -8 15 1 15
12 39 5 30 -10 -3 -5 -1 -11 5 -15 6 -4 10 5 10 19 0 22 -5 26 -29 26 -17 0
-33 5 -36 10 -9 15 -25 12 -25 -5z"/>
<path d="M12635 2160 c3 -5 8 -10 11 -10 2 0 4 5 4 10 0 6 -5 10 -11 10 -5 0
-7 -4 -4 -10z"/>
<path d="M12670 2146 c0 -9 5 -16 10 -16 6 0 10 4 10 9 0 6 -4 13 -10 16 -5 3
-10 -1 -10 -9z"/>
<path d="M12758 2153 c7 -3 16 -2 19 1 4 3 -2 6 -13 5 -11 0 -14 -3 -6 -6z"/>
<path d="M12792 2135 c0 -16 2 -22 5 -12 2 9 2 23 0 30 -3 6 -5 -1 -5 -18z"/>
<path d="M12193 2113 c9 -9 19 -14 23 -11 10 10 -6 28 -24 28 -15 0 -15 -1 1
-17z"/>
<path d="M12288 2113 c6 -2 18 -2 25 0 6 3 1 5 -13 5 -14 0 -19 -2 -12 -5z"/>
<path d="M12490 2099 c0 -11 5 -17 10 -14 6 3 10 13 10 21 0 8 -4 14 -10 14
-5 0 -10 -9 -10 -21z"/>
<path d="M12250 2100 c-13 -8 -12 -10 3 -10 9 0 17 5 17 10 0 12 -1 12 -20 0z"/>
<path d="M12675 2089 c-16 -7 -14 -8 13 -6 20 1 36 -4 42 -13 5 -8 12 -11 16
-7 8 8 -25 37 -41 36 -5 0 -19 -5 -30 -10z"/>
<path d="M11894 2083 c3 -4 -4 -12 -16 -19 -21 -11 -21 -13 -5 -19 20 -8 71
21 62 35 -4 6 -16 10 -27 10 -12 0 -18 -3 -14 -7z"/>
<path d="M12286 2081 c-3 -5 1 -11 9 -15 8 -3 15 -12 15 -21 0 -8 4 -15 9 -15
5 0 7 9 4 20 -4 16 0 20 18 21 l24 1 -25 8 c-35 11 -48 11 -54 1z"/>
<path d="M12568 2073 c6 -2 18 -2 25 0 6 3 1 5 -13 5 -14 0 -19 -2 -12 -5z"/>
<path d="M12785 2070 c3 -5 8 -10 11 -10 2 0 4 5 4 10 0 6 -5 10 -11 10 -5 0
-7 -4 -4 -10z"/>
<path d="M12005 2045 c42 -19 66 -19 41 0 -11 8 -31 15 -45 14 -26 -1 -26 -1
4 -14z"/>
<path d="M12091 2055 c-1 -18 26 -45 43 -45 10 0 14 -4 11 -10 -3 -5 -1 -10 4
-10 6 0 11 -4 11 -9 0 -6 -17 -7 -37 -5 -36 5 -37 5 -19 -10 31 -25 51 -19 69
19 22 45 21 48 -3 42 -11 -3 -23 -1 -26 4 -3 5 -14 9 -24 9 -10 0 -21 6 -23
13 -3 6 -6 8 -6 2z"/>
<path d="M12400 2040 c0 -19 3 -21 12 -12 9 9 9 15 0 24 -9 9 -12 7 -12 -12z"/>
<path d="M12786 2025 c4 -8 8 -15 10 -15 2 0 4 7 4 15 0 8 -4 15 -10 15 -5 0
-7 -7 -4 -15z"/>
<path d="M11920 2020 c0 -5 7 -10 15 -10 17 0 9 -29 -14 -47 -14 -11 -14 -12
2 -13 9 0 17 4 17 9 0 11 72 21 85 11 14 -11 46 3 37 16 -10 15 -62 27 -62 14
0 -5 -7 -10 -15 -10 -8 0 -15 9 -15 20 0 15 -7 20 -25 20 -14 0 -25 -4 -25
-10z"/>
<path d="M12195 1974 c-11 -17 -13 -30 -7 -36 11 -11 42 16 42 37 0 26 -18 25
-35 -1z"/>
<path d="M12385 1980 c-3 -5 -1 -10 4 -10 6 0 11 5 11 10 0 6 -2 10 -4 10 -3
0 -8 -4 -11 -10z"/>
<path d="M11966 1931 c-4 -5 3 -7 14 -4 23 6 26 13 6 13 -8 0 -17 -4 -20 -9z"/>
<path d="M12286 1932 c-8 -14 25 -25 36 -12 4 5 5 8 2 5 -4 -3 -13 0 -20 6 -7
6 -14 6 -18 1z"/>
<path d="M12001 1904 c0 -11 3 -14 6 -6 3 7 2 16 -1 19 -3 4 -6 -2 -5 -13z"/>
<path d="M12045 1880 c3 -5 8 -10 11 -10 2 0 4 5 4 10 0 6 -5 10 -11 10 -5 0
-7 -4 -4 -10z"/>
<path d="M11980 1862 c0 -6 5 -14 11 -17 6 -4 8 -13 5 -21 -3 -8 0 -11 10 -7
10 3 12 0 8 -10 -4 -11 4 -16 35 -19 46 -4 53 7 16 24 -29 13 -33 28 -7 29 9
1 4 5 -13 9 -16 4 -38 11 -47 15 -11 4 -18 3 -18 -3z"/>
<path d="M12000 1770 c0 -5 5 -10 11 -10 5 0 7 5 4 10 -3 6 -8 10 -11 10 -2 0
-4 -4 -4 -10z"/>
<path d="M12336 1773 c-11 -11 -6 -23 9 -23 8 0 15 4 15 9 0 13 -16 22 -24 14z"/>
</g>
</svg>
